<?xml version="1.0" encoding="utf-8"?>
<!-- Generator: Adobe Illustrator 26.1.0, SVG Export Plug-In . SVG Version: 6.00 Build 0)  -->
<svg version="1.1" id="_x2014_ÎÓÈ_x5F_1" xmlns="http://www.w3.org/2000/svg" xmlns:xlink="http://www.w3.org/1999/xlink"
	 x="0px" y="0px" viewBox="0 0 1750 1000" style="enable-background:new 0 0 1750 1000;" xml:space="preserve">
<style type="text/css">
	.st0{fill-rule:evenodd;clip-rule:evenodd;fill:#F4D932;}
	.st1{opacity:0.5;}
	.st2{opacity:0;fill-rule:evenodd;clip-rule:evenodd;fill:#FFFFFF;}
	.st3{opacity:0.0164;fill-rule:evenodd;clip-rule:evenodd;fill:#FBFBFB;}
	.st4{opacity:0.0328;fill-rule:evenodd;clip-rule:evenodd;fill:#F7F7F7;}
	.st5{opacity:0.0492;fill-rule:evenodd;clip-rule:evenodd;fill:#F2F2F2;}
	.st6{opacity:0.0656;fill-rule:evenodd;clip-rule:evenodd;fill:#EEEEEE;}
	.st7{opacity:0.082;fill-rule:evenodd;clip-rule:evenodd;fill:#EAEAEA;}
	.st8{opacity:0.0984;fill-rule:evenodd;clip-rule:evenodd;fill:#E6E6E6;}
	.st9{opacity:0.1148;fill-rule:evenodd;clip-rule:evenodd;fill:#E2E2E2;}
	.st10{opacity:0.1311;fill-rule:evenodd;clip-rule:evenodd;fill:#DEDEDE;}
	.st11{opacity:0.1475;fill-rule:evenodd;clip-rule:evenodd;fill:#D9D9D9;}
	.st12{opacity:0.1639;fill-rule:evenodd;clip-rule:evenodd;fill:#D5D5D5;}
	.st13{opacity:0.1803;fill-rule:evenodd;clip-rule:evenodd;fill:#D1D1D1;}
	.st14{opacity:0.1967;fill-rule:evenodd;clip-rule:evenodd;fill:#CDCDCD;}
	.st15{opacity:0.2131;fill-rule:evenodd;clip-rule:evenodd;fill:#C9C9C9;}
	.st16{opacity:0.2295;fill-rule:evenodd;clip-rule:evenodd;fill:#C4C4C4;}
	.st17{opacity:0.2459;fill-rule:evenodd;clip-rule:evenodd;fill:#C0C0C0;}
	.st18{opacity:0.2623;fill-rule:evenodd;clip-rule:evenodd;fill:#BCBCBC;}
	.st19{opacity:0.2787;fill-rule:evenodd;clip-rule:evenodd;fill:#B8B8B8;}
	.st20{opacity:0.2951;fill-rule:evenodd;clip-rule:evenodd;fill:#B4B4B4;}
	.st21{opacity:0.3115;fill-rule:evenodd;clip-rule:evenodd;fill:#B0B0B0;}
	.st22{opacity:0.3279;fill-rule:evenodd;clip-rule:evenodd;fill:#ABABAB;}
	.st23{opacity:0.3443;fill-rule:evenodd;clip-rule:evenodd;fill:#A7A7A7;}
	.st24{opacity:0.3607;fill-rule:evenodd;clip-rule:evenodd;fill:#A3A3A3;}
	.st25{opacity:0.377;fill-rule:evenodd;clip-rule:evenodd;fill:#9F9F9F;}
	.st26{opacity:0.3934;fill-rule:evenodd;clip-rule:evenodd;fill:#9B9B9B;}
	.st27{opacity:0.4098;fill-rule:evenodd;clip-rule:evenodd;fill:#969696;}
	.st28{opacity:0.4262;fill-rule:evenodd;clip-rule:evenodd;fill:#929292;}
	.st29{opacity:0.4426;fill-rule:evenodd;clip-rule:evenodd;fill:#8E8E8E;}
	.st30{opacity:0.459;fill-rule:evenodd;clip-rule:evenodd;fill:#8A8A8A;}
	.st31{opacity:0.4754;fill-rule:evenodd;clip-rule:evenodd;fill:#868686;}
	.st32{opacity:0.4918;fill-rule:evenodd;clip-rule:evenodd;fill:#828282;}
	.st33{opacity:0.5082;fill-rule:evenodd;clip-rule:evenodd;fill:#7D7D7D;}
	.st34{opacity:0.5246;fill-rule:evenodd;clip-rule:evenodd;fill:#797979;}
	.st35{opacity:0.541;fill-rule:evenodd;clip-rule:evenodd;fill:#757575;}
	.st36{opacity:0.5574;fill-rule:evenodd;clip-rule:evenodd;fill:#717171;}
	.st37{opacity:0.5738;fill-rule:evenodd;clip-rule:evenodd;fill:#6D6D6D;}
	.st38{opacity:0.5902;fill-rule:evenodd;clip-rule:evenodd;fill:#696969;}
	.st39{opacity:0.6066;fill-rule:evenodd;clip-rule:evenodd;fill:#646464;}
	.st40{opacity:0.623;fill-rule:evenodd;clip-rule:evenodd;fill:#606060;}
	.st41{opacity:0.6393;fill-rule:evenodd;clip-rule:evenodd;fill:#5C5C5C;}
	.st42{opacity:0.6557;fill-rule:evenodd;clip-rule:evenodd;fill:#585858;}
	.st43{opacity:0.6721;fill-rule:evenodd;clip-rule:evenodd;fill:#545454;}
	.st44{opacity:0.6885;fill-rule:evenodd;clip-rule:evenodd;fill:#4F4F4F;}
	.st45{opacity:0.7049;fill-rule:evenodd;clip-rule:evenodd;fill:#4B4B4B;}
	.st46{opacity:0.7213;fill-rule:evenodd;clip-rule:evenodd;fill:#474747;}
	.st47{opacity:0.7377;fill-rule:evenodd;clip-rule:evenodd;fill:#434343;}
	.st48{opacity:0.7541;fill-rule:evenodd;clip-rule:evenodd;fill:#3F3F3F;}
	.st49{opacity:0.7705;fill-rule:evenodd;clip-rule:evenodd;fill:#3B3B3B;}
	.st50{opacity:0.7869;fill-rule:evenodd;clip-rule:evenodd;fill:#363636;}
	.st51{opacity:0.8033;fill-rule:evenodd;clip-rule:evenodd;fill:#323232;}
	.st52{opacity:0.8197;fill-rule:evenodd;clip-rule:evenodd;fill:#2E2E2E;}
	.st53{opacity:0.8361;fill-rule:evenodd;clip-rule:evenodd;fill:#2A2A2A;}
	.st54{opacity:0.8525;fill-rule:evenodd;clip-rule:evenodd;fill:#262626;}
	.st55{opacity:0.8689;fill-rule:evenodd;clip-rule:evenodd;fill:#212121;}
	.st56{opacity:0.8852;fill-rule:evenodd;clip-rule:evenodd;fill:#1D1D1D;}
	.st57{opacity:0.9016;fill-rule:evenodd;clip-rule:evenodd;fill:#191919;}
	.st58{opacity:0.918;fill-rule:evenodd;clip-rule:evenodd;fill:#151515;}
	.st59{opacity:0.9344;fill-rule:evenodd;clip-rule:evenodd;fill:#111111;}
	.st60{opacity:0.9508;fill-rule:evenodd;clip-rule:evenodd;fill:#0D0D0D;}
	.st61{opacity:0.9672;fill-rule:evenodd;clip-rule:evenodd;fill:#080808;}
	.st62{opacity:0.9836;fill-rule:evenodd;clip-rule:evenodd;fill:#040404;}
	.st63{fill-rule:evenodd;clip-rule:evenodd;}
	.st64{fill-rule:evenodd;clip-rule:evenodd;fill:#202020;}
	.st65{fill-rule:evenodd;clip-rule:evenodd;fill:#363636;}
	.st66{fill-rule:evenodd;clip-rule:evenodd;fill:#666666;}
	.st67{fill-rule:evenodd;clip-rule:evenodd;fill:#612208;}
	.st68{fill-rule:evenodd;clip-rule:evenodd;fill:#484848;}
	.st69{fill-rule:evenodd;clip-rule:evenodd;fill:#CD3200;}
	.st70{fill-rule:evenodd;clip-rule:evenodd;fill:#6F6F6F;}
	.st71{fill-rule:evenodd;clip-rule:evenodd;fill:#FFFFFF;}
	.st72{fill-rule:evenodd;clip-rule:evenodd;fill:#CACACA;}
	.st73{fill-rule:evenodd;clip-rule:evenodd;fill:#BFBFBF;}
</style>
<rect class="st0" width="1750" height="1000"/>
<g>
	<g class="st1">
		<path class="st2" d="M984.04,136.1H765.96c-100.58,0-182.87,30.17-182.87,130.74v61.71v-23.29v550.13
			c0,63.98,52.35,116.33,116.32,116.33h351.17c63.98,0,116.32-52.35,116.32-116.33V305.26v23.29v-61.71
			C1166.91,166.26,1084.62,136.1,984.04,136.1z"/>
		<path class="st3" d="M985.08,138.45H764.92c-99.15,0-180.27,29.85-180.27,129.01v63v-22.89v546.9
			c0,63.49,51.95,115.43,115.43,115.43h349.85c63.49,0,115.43-51.95,115.43-115.43v-546.9v22.89v-63
			C1165.36,168.3,1084.23,138.45,985.08,138.45z"/>
		<path class="st4" d="M986.12,140.8H763.88c-97.73,0-177.68,29.54-177.68,127.27v64.29v-22.49v543.67
			c0,63,51.54,114.54,114.54,114.54h348.53c63,0,114.54-51.54,114.54-114.54V309.87v22.49v-64.29
			C1163.81,170.34,1083.85,140.8,986.12,140.8z"/>
		<path class="st5" d="M987.16,143.15H762.84c-96.3,0-175.09,29.23-175.09,125.53v65.58v-22.09v540.44
			c0,62.51,51.14,113.65,113.65,113.65h347.2c62.51,0,113.65-51.14,113.65-113.65V312.18v22.09v-65.58
			C1162.25,172.38,1083.46,143.15,987.16,143.15z"/>
		<path class="st6" d="M988.2,145.5H761.8c-94.87,0-172.5,28.92-172.5,123.79v66.88v-21.69v537.21
			c0,62.02,50.74,112.76,112.76,112.76h345.88c62.02,0,112.76-50.74,112.76-112.76V314.48v21.69v-66.88
			C1160.7,174.42,1083.08,145.5,988.2,145.5z"/>
		<path class="st7" d="M989.24,147.85H760.76c-93.45,0-169.91,28.61-169.91,122.06v68.17v-21.29v533.98
			c0,61.53,50.34,111.87,111.87,111.87h344.56c61.53,0,111.87-50.34,111.87-111.87V316.78v21.29V269.9
			C1159.15,176.45,1082.69,147.85,989.24,147.85z"/>
		<path class="st8" d="M990.28,150.2H759.72c-92.02,0-167.31,28.3-167.31,120.32v69.46v-20.89v530.75
			c0,61.04,49.94,110.98,110.98,110.98h343.24c61.04,0,110.98-49.94,110.98-110.98V319.09v20.89v-69.46
			C1157.6,178.49,1082.3,150.2,990.28,150.2z"/>
		<path class="st9" d="M991.32,152.54H758.68c-90.6,0-164.72,27.98-164.72,118.58v70.75v-20.48v527.52
			c0,60.55,49.54,110.09,110.09,110.09h341.92c60.55,0,110.08-49.54,110.08-110.09V321.39v20.48v-70.75
			C1156.04,180.53,1081.92,152.54,991.32,152.54z"/>
		<path class="st10" d="M992.36,154.89H757.64c-89.17,0-162.13,27.67-162.13,116.84v72.04v-20.08v524.29
			c0,60.06,49.14,109.19,109.19,109.19h340.59c60.06,0,109.19-49.14,109.19-109.19V323.69v20.08v-72.04
			C1154.49,182.57,1081.53,154.89,992.36,154.89z"/>
		<path class="st11" d="M993.4,157.24H756.6c-87.75,0-159.54,27.36-159.54,115.11v73.33V326v521.06c0,59.57,48.74,108.3,108.3,108.3
			h339.27c59.57,0,108.3-48.74,108.3-108.3V326v19.68v-73.33C1152.94,184.6,1081.15,157.24,993.4,157.24z"/>
		<path class="st12" d="M994.44,159.59H755.56c-86.32,0-156.95,27.05-156.95,113.37v74.62V328.3v517.83
			c0,59.08,48.33,107.41,107.41,107.41h337.95c59.08,0,107.41-48.33,107.41-107.41V328.3v19.28v-74.62
			C1151.39,186.64,1080.76,159.59,994.44,159.59z"/>
		<path class="st13" d="M995.48,161.94H754.52c-84.89,0-154.35,26.74-154.35,111.63v75.92v-18.88v514.6
			c0,58.59,47.93,106.52,106.52,106.52h336.63c58.59,0,106.52-47.93,106.52-106.52v-514.6v18.88v-75.92
			C1149.83,188.68,1080.37,161.94,995.48,161.94z"/>
		<path class="st14" d="M996.52,164.29H753.48c-83.47,0-151.76,26.42-151.76,109.89v77.21v-18.48v511.37
			c0,58.1,47.53,105.63,105.63,105.63h335.31c58.1,0,105.63-47.53,105.63-105.63V332.91v18.48v-77.21
			C1148.28,190.72,1079.99,164.29,996.52,164.29z"/>
		<path class="st15" d="M997.56,166.64H752.44c-82.04,0-149.17,26.11-149.17,108.15v78.5v-18.08v508.14
			c0,57.61,47.13,104.74,104.74,104.74h333.99c57.6,0,104.74-47.13,104.74-104.74V335.21v18.08v-78.5
			C1146.73,192.75,1079.6,166.64,997.56,166.64z"/>
		<path class="st16" d="M998.6,168.99H751.4c-80.62,0-146.58,25.8-146.58,106.42v79.79v-17.68v504.91
			c0,57.11,46.73,103.85,103.85,103.85h332.66c57.11,0,103.84-46.73,103.84-103.84V337.52v17.68v-79.79
			C1145.18,194.79,1079.22,168.99,998.6,168.99z"/>
		<path class="st17" d="M999.64,171.34H750.36c-79.19,0-143.99,25.49-143.99,104.68v81.08v-17.28V841.5
			c0,56.62,46.33,102.95,102.95,102.95h331.34c56.62,0,102.95-46.33,102.95-102.95V339.82v17.28v-81.08
			C1143.62,196.83,1078.83,171.34,999.64,171.34z"/>
		<path class="st18" d="M1000.68,173.69H749.32c-77.77,0-141.39,25.18-141.39,102.94v82.37v-16.88v498.45
			c0,56.13,45.93,102.06,102.06,102.06h330.02c56.13,0,102.06-45.93,102.06-102.06V342.12v16.88v-82.37
			C1142.07,198.87,1078.44,173.69,1000.68,173.69z"/>
		<path class="st19" d="M1001.72,176.04H748.28c-76.34,0-138.8,24.86-138.8,101.2v83.66v-16.48v495.22
			c0,55.64,45.53,101.17,101.17,101.17h328.7c55.64,0,101.17-45.53,101.17-101.17V344.43v16.48v-83.66
			C1140.52,200.9,1078.06,176.04,1001.72,176.04z"/>
		<path class="st20" d="M1002.76,178.39H747.24c-74.92,0-136.21,24.55-136.21,99.47v84.96v-16.08v491.99
			c0,55.15,45.13,100.28,100.28,100.28h327.38c55.15,0,100.28-45.13,100.28-100.28V346.73v16.08v-84.95
			C1138.97,202.94,1077.67,178.39,1002.76,178.39z"/>
		<path class="st21" d="M1003.8,180.74H746.2c-73.49,0-133.62,24.24-133.62,97.73v86.25v-15.68v488.76
			c0,54.66,44.72,99.39,99.39,99.39h326.05c54.66,0,99.39-44.72,99.39-99.39V349.04v15.68v-86.25
			C1137.41,204.98,1077.29,180.74,1003.8,180.74z"/>
		<path class="st22" d="M1004.84,183.09H745.16c-72.06,0-131.03,23.93-131.03,95.99v87.54v-15.28v485.53
			c0,54.17,44.32,98.5,98.5,98.5h324.73c54.17,0,98.5-44.32,98.5-98.5V351.34v15.28v-87.54
			C1135.86,207.02,1076.9,183.09,1004.84,183.09z"/>
		<path class="st23" d="M1005.88,185.44H744.12c-70.64,0-128.43,23.62-128.43,94.25v88.83v-14.88v482.3
			c0,53.68,43.92,97.61,97.61,97.61h323.41c53.68,0,97.6-43.92,97.6-97.6v-482.3v14.88v-88.83
			C1134.31,209.06,1076.51,185.44,1005.88,185.44z"/>
		<path class="st24" d="M1006.92,187.79H743.08c-69.21,0-125.84,23.3-125.84,92.52v90.12v-14.48v479.07
			c0,53.19,43.52,96.71,96.71,96.71h322.09c53.19,0,96.71-43.52,96.71-96.71V355.95v14.48v-90.12
			C1132.76,211.09,1076.13,187.79,1006.92,187.79z"/>
		<path class="st25" d="M1007.95,190.14H742.04c-67.79,0-123.25,22.99-123.25,90.78v91.41v-14.08v475.84
			c0,52.7,43.12,95.82,95.82,95.82h320.77c52.7,0,95.82-43.12,95.82-95.82V358.25v14.08v-91.41
			C1131.21,213.13,1075.74,190.14,1007.95,190.14z"/>
		<path class="st26" d="M1008.99,192.49H741c-66.36,0-120.66,22.68-120.66,89.04v92.7v-13.68v472.61
			c0,52.21,42.72,94.93,94.93,94.93h319.44c52.21,0,94.93-42.72,94.93-94.93V360.55v13.68v-92.7
			C1129.65,215.17,1075.36,192.49,1008.99,192.49z"/>
		<path class="st27" d="M1010.03,194.84H739.97c-64.94,0-118.07,22.37-118.07,87.3v93.99v-13.28v469.38
			c0,51.72,42.32,94.04,94.04,94.04h318.12c51.72,0,94.04-42.32,94.04-94.04V362.86v13.28v-93.99
			C1128.1,217.21,1074.97,194.84,1010.03,194.84z"/>
		<path class="st28" d="M1011.07,197.19H738.93c-63.51,0-115.47,22.06-115.47,85.57v95.29v-12.88v466.15
			c0,51.23,41.92,93.15,93.15,93.15h316.8c51.23,0,93.15-41.92,93.15-93.15V365.16v12.88v-95.29
			C1126.55,219.24,1074.58,197.19,1011.07,197.19z"/>
		<path class="st29" d="M1012.11,199.54H737.89c-62.08,0-112.88,21.74-112.88,83.83v96.58v-12.48v462.92
			c0,50.74,41.52,92.26,92.26,92.26h315.48c50.74,0,92.26-41.52,92.26-92.26V367.47v12.48v-96.58
			C1125,221.28,1074.2,199.54,1012.11,199.54z"/>
		<path class="st30" d="M1013.15,201.89H736.85c-60.66,0-110.29,21.43-110.29,82.09v97.87v-12.08v459.69
			c0,50.25,41.11,91.37,91.37,91.37h314.16c50.25,0,91.36-41.11,91.36-91.36V369.77v12.08v-97.87
			C1123.44,223.32,1073.81,201.89,1013.15,201.89z"/>
		<path class="st31" d="M1014.19,204.24H735.81c-59.23,0-107.7,21.12-107.7,80.35v99.16v-11.68v456.46
			c0,49.76,40.71,90.47,90.47,90.47h312.83c49.76,0,90.47-40.71,90.47-90.47V372.07v11.68v-99.16
			C1121.89,225.36,1073.43,204.24,1014.19,204.24z"/>
		<path class="st32" d="M1015.23,206.59H734.77c-57.81,0-105.11,20.81-105.11,78.62v100.45v-11.28V827.6
			c0,49.27,40.31,89.58,89.58,89.58h311.51c49.27,0,89.58-40.31,89.58-89.58V374.38v11.28V285.2
			C1120.34,227.39,1073.04,206.59,1015.23,206.59z"/>
		<path class="st33" d="M1016.27,208.93H733.73c-56.38,0-102.51,20.5-102.51,76.88v101.74v-10.88v450
			c0,48.78,39.91,88.69,88.69,88.69h310.19c48.78,0,88.69-39.91,88.69-88.69v-450v10.88V285.81
			C1118.79,229.43,1072.65,208.93,1016.27,208.93z"/>
		<path class="st34" d="M1017.31,211.28H732.69c-54.96,0-99.92,20.18-99.92,75.14v103.03v-10.47v446.77
			c0,48.29,39.51,87.8,87.8,87.8h308.87c48.29,0,87.8-39.51,87.8-87.8V378.99v10.47V286.43
			C1117.23,231.47,1072.27,211.28,1017.31,211.28z"/>
		<path class="st35" d="M1018.35,213.63h-286.7c-53.53,0-97.33,19.87-97.33,73.4v104.33v-10.07v443.54
			c0,47.8,39.11,86.91,86.91,86.91h307.55c47.8,0,86.91-39.11,86.91-86.91V381.29v10.07V287.04
			C1115.68,233.51,1071.88,213.63,1018.35,213.63z"/>
		<path class="st36" d="M1019.39,215.98H730.61c-52.11,0-94.74,19.56-94.74,71.67v105.62v-9.67V823.9
			c0,47.31,38.71,86.02,86.02,86.02h306.23c47.31,0,86.02-38.71,86.02-86.02V383.59v9.67V287.65
			C1114.13,235.54,1071.5,215.98,1019.39,215.98z"/>
		<path class="st37" d="M1020.43,218.33H729.57c-50.68,0-92.15,19.25-92.15,69.93v106.91v-9.27v437.08
			c0,46.82,38.31,85.13,85.13,85.13h304.9c46.82,0,85.12-38.31,85.12-85.12V385.9v9.27V288.26
			C1112.58,237.58,1071.11,218.33,1020.43,218.33z"/>
		<path class="st38" d="M1021.47,220.68H728.53c-49.25,0-89.55,18.94-89.55,68.19v108.2v-8.87v433.85
			c0,46.33,37.91,84.23,84.23,84.23h303.58c46.33,0,84.23-37.9,84.23-84.23V388.2v8.87v-108.2
			C1111.02,239.62,1070.72,220.68,1021.47,220.68z"/>
		<path class="st39" d="M1022.51,223.03H727.49c-47.83,0-86.96,18.63-86.96,66.45v109.49v-8.47v430.62
			c0,45.84,37.5,83.34,83.34,83.34h302.26c45.84,0,83.34-37.5,83.34-83.34V390.5v8.47V289.49
			C1109.47,241.66,1070.34,223.03,1022.51,223.03z"/>
		<path class="st40" d="M1023.55,225.38h-297.1c-46.4,0-84.37,18.31-84.37,64.72v110.78v-8.07v427.39
			c0,45.35,37.1,82.45,82.45,82.45h300.94c45.35,0,82.45-37.1,82.45-82.45V392.81v8.07V290.1
			C1107.92,243.7,1069.95,225.38,1023.55,225.38z"/>
		<path class="st41" d="M1024.59,227.73H725.41c-44.98,0-81.78,18-81.78,62.98v112.07v-7.67v424.15c0,44.86,36.7,81.56,81.56,81.56
			h299.62c44.86,0,81.56-36.7,81.56-81.56V395.11v7.67V290.71C1106.37,245.73,1069.57,227.73,1024.59,227.73z"/>
		<path class="st42" d="M1025.63,230.08H724.37c-43.55,0-79.19,17.69-79.19,61.24v113.37v-7.27v420.92
			c0,44.37,36.3,80.67,80.67,80.67h298.29c44.37,0,80.67-36.3,80.67-80.67V397.42v7.27V291.32
			C1104.82,247.77,1069.18,230.08,1025.63,230.08z"/>
		<path class="st43" d="M1026.67,232.43H723.33c-42.13,0-76.59,17.38-76.59,59.5v114.66v-6.87v417.69
			c0,43.88,35.9,79.78,79.78,79.78h296.97c43.88,0,79.78-35.9,79.78-79.78v-417.7v6.87V291.94
			C1103.26,249.81,1068.8,232.43,1026.67,232.43z"/>
		<path class="st44" d="M1027.71,234.78H722.29c-40.7,0-74,17.07-74,57.77v115.95v-6.47v414.46c0,43.39,35.5,78.89,78.89,78.89
			h295.65c43.39,0,78.88-35.5,78.88-78.88V402.02v6.47V292.55C1101.71,251.85,1068.41,234.78,1027.71,234.78z"/>
		<path class="st45" d="M1028.75,237.13h-307.5c-39.28,0-71.41,16.75-71.41,56.03V410.4v-6.07v411.23c0,42.9,35.1,77.99,77.99,77.99
			h294.33c42.9,0,77.99-35.1,77.99-77.99V404.33v6.07V293.16C1100.16,253.88,1068.02,237.13,1028.75,237.13z"/>
		<path class="st46" d="M1029.79,239.48H720.21c-37.85,0-68.82,16.44-68.82,54.29V412.3v-5.67v408c0,42.41,34.7,77.1,77.1,77.1
			h293.01c42.41,0,77.1-34.7,77.1-77.1V406.63v5.67V293.77C1098.61,255.92,1067.64,239.48,1029.79,239.48z"/>
		<path class="st47" d="M1030.83,241.83H719.17c-36.42,0-66.23,16.13-66.23,52.55V414.2v-5.27v404.77
			c0,41.92,34.3,76.21,76.21,76.21h291.68c41.92,0,76.21-34.29,76.21-76.21V408.93v5.27V294.38
			C1097.05,257.96,1067.25,241.83,1030.83,241.83z"/>
		<path class="st48" d="M1031.87,244.18H718.13c-35,0-63.63,15.82-63.63,50.82v121.11v-4.87v401.54c0,41.43,33.89,75.32,75.32,75.32
			h290.36c41.42,0,75.32-33.89,75.32-75.32V411.24v4.87V295C1095.5,260,1066.87,244.18,1031.87,244.18z"/>
		<path class="st49" d="M1032.91,246.53H717.09c-33.57,0-61.04,15.51-61.04,49.08v122.4v-4.47v398.31
			c0,40.94,33.49,74.43,74.43,74.43h289.04c40.93,0,74.43-33.49,74.43-74.43V413.54v4.47v-122.4
			C1093.95,262.03,1066.48,246.53,1032.91,246.53z"/>
		<path class="st50" d="M1033.95,248.88H716.05c-32.15,0-58.45,15.19-58.45,47.34v123.7v-4.07v395.08
			c0,40.45,33.09,73.54,73.54,73.54h287.72c40.44,0,73.54-33.09,73.54-73.54V415.85v4.07V296.22
			C1092.4,264.07,1066.09,248.88,1033.95,248.88z"/>
		<path class="st51" d="M1034.98,251.23H715.01c-30.72,0-55.86,14.88-55.86,45.6v124.99v-3.67V810c0,39.96,32.69,72.65,72.65,72.65
			h286.4c39.95,0,72.64-32.69,72.64-72.64V418.15v3.67V296.83C1090.84,266.11,1065.71,251.23,1034.98,251.23z"/>
		<path class="st52" d="M1036.02,253.58H713.97c-29.3,0-53.27,14.57-53.27,43.87v126.28v-3.27v388.62
			c0,39.47,32.29,71.75,71.75,71.75h285.08c39.46,0,71.75-32.29,71.75-71.75V420.45v3.27V297.44
			C1089.29,268.15,1065.32,253.58,1036.02,253.58z"/>
		<path class="st53" d="M1037.06,255.93H712.93c-27.87,0-50.67,14.26-50.67,42.13v127.57v-2.87v385.39
			c0,38.97,31.89,70.86,70.86,70.86h283.75c38.97,0,70.86-31.89,70.86-70.86v-385.4v2.87V298.06
			C1087.74,270.18,1064.94,255.93,1037.06,255.93z"/>
		<path class="st54" d="M1038.1,258.28H711.89c-26.44,0-48.08,13.95-48.08,40.39v128.86v-2.47v382.16
			c0,38.48,31.49,69.97,69.97,69.97h282.43c38.48,0,69.97-31.49,69.97-69.97V425.06v2.47V298.67
			C1086.19,272.22,1064.55,258.28,1038.1,258.28z"/>
		<path class="st55" d="M1039.14,260.63H710.85c-25.02,0-45.49,13.63-45.49,38.65v130.15v-2.07V806.3
			c0,37.99,31.09,69.08,69.08,69.08h281.11c37.99,0,69.08-31.09,69.08-69.08V427.37v2.07V299.28
			C1084.63,274.26,1064.16,260.63,1039.14,260.63z"/>
		<path class="st56" d="M1040.18,262.97H709.82c-23.59,0-42.9,13.32-42.9,36.92v131.44v-1.67v375.7c0,37.5,30.69,68.19,68.19,68.19
			h279.79c37.5,0,68.19-30.68,68.19-68.19V429.67v1.67V299.89C1083.08,276.3,1063.78,262.97,1040.18,262.97z"/>
		<path class="st57" d="M1041.22,265.32H708.78c-22.17,0-40.31,13.01-40.31,35.18v132.74v-1.27v372.47c0,37.01,30.28,67.3,67.3,67.3
			h278.47c37.01,0,67.3-30.28,67.3-67.3V431.97v1.27V300.5C1081.53,278.34,1063.39,265.32,1041.22,265.32z"/>
		<path class="st58" d="M1042.26,267.67H707.74c-20.74,0-37.71,12.7-37.71,33.44v134.03v-0.86v369.24
			c0,36.52,29.88,66.41,66.41,66.41h277.14c36.52,0,66.4-29.88,66.4-66.4V434.28v0.86V301.12
			C1079.98,280.37,1063.01,267.67,1042.26,267.67z"/>
		<path class="st59" d="M1043.3,270.02H706.7c-19.32,0-35.12,12.39-35.12,31.7v135.32v-0.46v366.01c0,36.03,29.48,65.52,65.52,65.52
			h275.82c36.03,0,65.51-29.48,65.51-65.51V436.58v0.46V301.73C1078.42,282.41,1062.62,270.02,1043.3,270.02z"/>
		<path class="st60" d="M1044.34,272.37H705.66c-17.89,0-32.53,12.07-32.53,29.97v136.61v-0.06v362.78
			c0,35.54,29.08,64.62,64.62,64.62h274.5c35.54,0,64.62-29.08,64.62-64.62V438.88v0.06V302.34
			C1076.87,284.45,1062.23,272.37,1044.34,272.37z"/>
		<path class="st61" d="M1045.38,274.72H704.62c-16.47,0-29.94,11.76-29.94,28.23v137.9v0.34v359.55
			c0,35.05,28.68,63.73,63.73,63.73h273.18c35.05,0,63.73-28.68,63.73-63.73V441.19v-0.34v-137.9
			C1075.32,286.49,1061.85,274.72,1045.38,274.72z"/>
		<path class="st62" d="M1046.42,277.07H703.58c-15.04,0-27.34,11.45-27.34,26.49v139.19v0.74v356.32
			c0,34.56,28.28,62.84,62.84,62.84h271.86c34.56,0,62.84-28.28,62.84-62.84V443.49v-0.74V303.56
			C1073.77,288.52,1061.46,277.07,1046.42,277.07z"/>
		<path class="st63" d="M1047.46,279.42H702.54c-13.61,0-24.75,11.14-24.75,24.75v140.48v1.14v353.09
			c0,34.07,27.88,61.95,61.95,61.95h270.53c34.07,0,61.95-27.88,61.95-61.95V445.8v-1.14V304.18
			C1072.22,290.56,1061.08,279.42,1047.46,279.42z"/>
	</g>
	<path class="st64" d="M1084.99,149.06H665c-16.58,0-30.14,13.56-30.14,30.14v171.06v1.39v475.23c0,16.57,13.56,30.14,30.14,30.14
		h419.99c16.58,0,30.14-13.56,30.14-30.14V351.64v-1.39V179.2C1115.13,162.62,1101.57,149.06,1084.99,149.06z"/>
	<path class="st65" d="M634.87,811.72c0,16.57,13.56,30.14,30.14,30.14H1085c16.58,0,30.14-13.56,30.14-30.14
		c0-215.89,0-431.78,0-647.66c0-16.58-13.56-30.14-30.14-30.14H665.01c-16.58,0-30.14,13.56-30.14,30.14
		C634.87,379.94,634.87,595.83,634.87,811.72z"/>
	<path class="st66" d="M1064.63,177.9H685.38c-9.78,0-17.79,8.01-17.79,17.79v99.5c0,9.79,8.01,17.79,17.79,17.79h379.25
		c9.79,0,17.79-8.01,17.79-17.79v-99.5C1082.42,185.91,1074.41,177.9,1064.63,177.9z"/>
	<g>
		<path class="st67" d="M847.52,381.97h-60.29c-4.92,0-8.95,4.03-8.95,8.95v42.6c0,4.92,4.03,8.95,8.95,8.95h60.29
			c4.93,0,8.95-4.03,8.95-8.95v-42.6C856.47,386,852.44,381.97,847.52,381.97L847.52,381.97z M732.26,381.97h-60.29
			c-4.92,0-8.95,4.03-8.95,8.95v42.6c0,4.92,4.03,8.95,8.95,8.95h60.29c4.92,0,8.95-4.03,8.95-8.95v-42.6
			C741.22,386,737.19,381.97,732.26,381.97z"/>
		<path class="st68" d="M1078.03,653.75h-60.29c-4.92,0-8.95,4.03-8.95,8.95v133.19c0,4.92,4.03,8.95,8.95,8.95h60.29
			c4.93,0,8.95-4.03,8.95-8.95V662.7C1086.98,657.77,1082.96,653.75,1078.03,653.75L1078.03,653.75z M962.78,381.97h-60.29
			c-4.92,0-8.95,4.03-8.95,8.95v42.6c0,4.92,4.03,8.95,8.95,8.95h60.29c4.93,0,8.95-4.03,8.95-8.95v-42.6
			C971.73,386,967.7,381.97,962.78,381.97L962.78,381.97z M1078.03,381.97h-60.29c-4.92,0-8.95,4.03-8.95,8.95v42.6
			c0,4.92,4.03,8.95,8.95,8.95h60.29c4.93,0,8.95-4.03,8.95-8.95v-42.6C1086.98,386,1082.96,381.97,1078.03,381.97L1078.03,381.97z
			 M1078.03,472.56h-60.29c-4.92,0-8.95,4.03-8.95,8.95v42.6c0,4.93,4.03,8.95,8.95,8.95h60.29c4.93,0,8.95-4.02,8.95-8.95v-42.6
			C1086.98,476.59,1082.96,472.56,1078.03,472.56L1078.03,472.56z M962.78,472.56h-60.29c-4.92,0-8.95,4.03-8.95,8.95v42.6
			c0,4.93,4.03,8.95,8.95,8.95h60.29c4.93,0,8.95-4.02,8.95-8.95v-42.6C971.73,476.59,967.7,472.56,962.78,472.56L962.78,472.56z
			 M847.52,472.56h-60.29c-4.92,0-8.95,4.03-8.95,8.95v42.6c0,4.93,4.03,8.95,8.95,8.95h60.29c4.93,0,8.95-4.02,8.95-8.95v-42.6
			C856.47,476.59,852.44,472.56,847.52,472.56L847.52,472.56z M732.26,472.56h-60.29c-4.92,0-8.95,4.03-8.95,8.95v42.6
			c0,4.93,4.03,8.95,8.95,8.95h60.29c4.92,0,8.95-4.02,8.95-8.95v-42.6C741.22,476.59,737.19,472.56,732.26,472.56L732.26,472.56z
			 M732.26,563.16h-60.29c-4.92,0-8.95,4.03-8.95,8.95v42.6c0,4.92,4.03,8.95,8.95,8.95h60.29c4.92,0,8.95-4.03,8.95-8.95v-42.6
			C741.22,567.18,737.19,563.16,732.26,563.16L732.26,563.16z M847.52,563.16h-60.29c-4.92,0-8.95,4.03-8.95,8.95v42.6
			c0,4.92,4.03,8.95,8.95,8.95h60.29c4.93,0,8.95-4.03,8.95-8.95v-42.6C856.47,567.18,852.44,563.16,847.52,563.16L847.52,563.16z
			 M962.78,563.16h-60.29c-4.92,0-8.95,4.03-8.95,8.95v42.6c0,4.92,4.03,8.95,8.95,8.95h60.29c4.93,0,8.95-4.03,8.95-8.95v-42.6
			C971.73,567.18,967.7,563.16,962.78,563.16L962.78,563.16z M1078.03,563.16h-60.29c-4.92,0-8.95,4.03-8.95,8.95v42.6
			c0,4.92,4.03,8.95,8.95,8.95h60.29c4.93,0,8.95-4.03,8.95-8.95v-42.6C1086.98,567.18,1082.96,563.16,1078.03,563.16
			L1078.03,563.16z M962.78,653.75h-60.29c-4.92,0-8.95,4.03-8.95,8.95v42.6c0,4.92,4.03,8.95,8.95,8.95h60.29
			c4.93,0,8.95-4.03,8.95-8.95v-42.6C971.73,657.77,967.7,653.75,962.78,653.75L962.78,653.75z M847.52,653.75h-60.29
			c-4.92,0-8.95,4.03-8.95,8.95v42.6c0,4.92,4.03,8.95,8.95,8.95h60.29c4.93,0,8.95-4.03,8.95-8.95v-42.6
			C856.47,657.77,852.44,653.75,847.52,653.75L847.52,653.75z M732.26,653.75h-60.29c-4.92,0-8.95,4.03-8.95,8.95v42.6
			c0,4.92,4.03,8.95,8.95,8.95h60.29c4.92,0,8.95-4.03,8.95-8.95v-42.6C741.22,657.77,737.19,653.75,732.26,653.75L732.26,653.75z
			 M732.26,744.34h-60.29c-4.92,0-8.95,4.03-8.95,8.95v42.6c0,4.92,4.03,8.95,8.95,8.95h60.29c4.92,0,8.95-4.03,8.95-8.95v-42.6
			C741.22,748.36,737.19,744.34,732.26,744.34L732.26,744.34z M847.52,744.34h-60.29c-4.92,0-8.95,4.03-8.95,8.95v42.6
			c0,4.92,4.03,8.95,8.95,8.95h60.29c4.93,0,8.95-4.03,8.95-8.95v-42.6C856.47,748.36,852.44,744.34,847.52,744.34L847.52,744.34z
			 M962.78,744.34h-60.29c-4.92,0-8.95,4.03-8.95,8.95v42.6c0,4.92,4.03,8.95,8.95,8.95h60.29c4.93,0,8.95-4.03,8.95-8.95v-42.6
			C971.73,748.36,967.7,744.34,962.78,744.34z"/>
		<path class="st69" d="M847.52,376.96h-60.29c-4.92,0-8.95,4.03-8.95,8.95v42.6c0,4.92,4.03,8.95,8.95,8.95h60.29
			c4.93,0,8.95-4.03,8.95-8.95v-42.6C856.47,380.99,852.44,376.96,847.52,376.96L847.52,376.96z M732.26,376.96h-60.29
			c-4.92,0-8.95,4.03-8.95,8.95v42.6c0,4.92,4.03,8.95,8.95,8.95h60.29c4.92,0,8.95-4.03,8.95-8.95v-42.6
			C741.22,380.99,737.19,376.96,732.26,376.96z"/>
		<path class="st70" d="M1078.03,376.96h-60.29c-4.92,0-8.95,4.03-8.95,8.95v42.6c0,4.92,4.03,8.95,8.95,8.95h60.29
			c4.93,0,8.95-4.03,8.95-8.95v-42.6C1086.98,380.99,1082.96,376.96,1078.03,376.96L1078.03,376.96z M732.26,739.32h-60.29
			c-4.92,0-8.95,4.03-8.95,8.95v42.59c0,4.92,4.03,8.95,8.95,8.95h60.29c4.92,0,8.95-4.03,8.95-8.95v-42.59
			C741.22,743.35,737.19,739.32,732.26,739.32L732.26,739.32z M847.52,739.32h-60.29c-4.92,0-8.95,4.03-8.95,8.95v42.59
			c0,4.92,4.03,8.95,8.95,8.95h60.29c4.93,0,8.95-4.03,8.95-8.95v-42.59C856.47,743.35,852.44,739.32,847.52,739.32L847.52,739.32z
			 M962.78,739.32h-60.29c-4.92,0-8.95,4.03-8.95,8.95v42.59c0,4.92,4.03,8.95,8.95,8.95h60.29c4.93,0,8.95-4.03,8.95-8.95v-42.59
			C971.73,743.35,967.7,739.32,962.78,739.32L962.78,739.32z M1078.03,648.74h-60.29c-4.92,0-8.95,4.03-8.95,8.95v133.19
			c0,4.92,4.03,8.95,8.95,8.95h60.29c4.93,0,8.95-4.03,8.95-8.95V657.69C1086.98,652.76,1082.96,648.74,1078.03,648.74
			L1078.03,648.74z M962.78,648.74h-60.29c-4.92,0-8.95,4.03-8.95,8.95v42.59c0,4.92,4.03,8.95,8.95,8.95h60.29
			c4.93,0,8.95-4.03,8.95-8.95v-42.59C971.73,652.76,967.7,648.74,962.78,648.74L962.78,648.74z M847.52,648.74h-60.29
			c-4.92,0-8.95,4.03-8.95,8.95v42.59c0,4.92,4.03,8.95,8.95,8.95h60.29c4.93,0,8.95-4.03,8.95-8.95v-42.59
			C856.47,652.76,852.44,648.74,847.52,648.74L847.52,648.74z M732.26,648.74h-60.29c-4.92,0-8.95,4.03-8.95,8.95v42.59
			c0,4.92,4.03,8.95,8.95,8.95h60.29c4.92,0,8.95-4.03,8.95-8.95v-42.59C741.22,652.76,737.19,648.74,732.26,648.74L732.26,648.74z
			 M732.26,558.14h-60.29c-4.92,0-8.95,4.03-8.95,8.95v42.6c0,4.93,4.03,8.95,8.95,8.95h60.29c4.92,0,8.95-4.03,8.95-8.95v-42.6
			C741.22,562.17,737.19,558.14,732.26,558.14L732.26,558.14z M847.52,558.14h-60.29c-4.92,0-8.95,4.03-8.95,8.95v42.6
			c0,4.93,4.03,8.95,8.95,8.95h60.29c4.93,0,8.95-4.03,8.95-8.95v-42.6C856.47,562.17,852.44,558.14,847.52,558.14L847.52,558.14z
			 M962.78,558.14h-60.29c-4.92,0-8.95,4.03-8.95,8.95v42.6c0,4.93,4.03,8.95,8.95,8.95h60.29c4.93,0,8.95-4.03,8.95-8.95v-42.6
			C971.73,562.17,967.7,558.14,962.78,558.14L962.78,558.14z M1078.03,558.14h-60.29c-4.92,0-8.95,4.03-8.95,8.95v42.6
			c0,4.93,4.03,8.95,8.95,8.95h60.29c4.93,0,8.95-4.03,8.95-8.95v-42.6C1086.98,562.17,1082.96,558.14,1078.03,558.14
			L1078.03,558.14z M1078.03,467.55h-60.29c-4.92,0-8.95,4.03-8.95,8.95v42.6c0,4.92,4.03,8.95,8.95,8.95h60.29
			c4.93,0,8.95-4.03,8.95-8.95v-42.6C1086.98,471.58,1082.96,467.55,1078.03,467.55L1078.03,467.55z M962.78,467.55h-60.29
			c-4.92,0-8.95,4.03-8.95,8.95v42.6c0,4.92,4.03,8.95,8.95,8.95h60.29c4.93,0,8.95-4.03,8.95-8.95v-42.6
			C971.73,471.58,967.7,467.55,962.78,467.55L962.78,467.55z M847.52,467.55h-60.29c-4.92,0-8.95,4.03-8.95,8.95v42.6
			c0,4.92,4.03,8.95,8.95,8.95h60.29c4.93,0,8.95-4.03,8.95-8.95v-42.6C856.47,471.58,852.44,467.55,847.52,467.55L847.52,467.55z
			 M732.26,467.55h-60.29c-4.92,0-8.95,4.03-8.95,8.95v42.6c0,4.92,4.03,8.95,8.95,8.95h60.29c4.92,0,8.95-4.03,8.95-8.95v-42.6
			C741.22,471.58,737.19,467.55,732.26,467.55L732.26,467.55z M962.78,376.96h-60.29c-4.92,0-8.95,4.03-8.95,8.95v42.6
			c0,4.92,4.03,8.95,8.95,8.95h60.29c4.93,0,8.95-4.03,8.95-8.95v-42.6C971.73,380.99,967.7,376.96,962.78,376.96z"/>
		<path class="st71" d="M702.11,773.12c-1.05,0-1.91-0.34-2.57-1.02c-0.66-0.69-0.98-1.52-0.98-2.52c0-1,0.33-1.84,0.98-2.52
			c0.66-0.69,1.52-1.02,2.57-1.02c1.05,0,1.91,0.34,2.57,1.02c0.65,0.68,0.99,1.52,0.99,2.52c0,1-0.34,1.83-0.99,2.52
			C704.02,772.78,703.17,773.12,702.11,773.12L702.11,773.12z M714.95,392.16c-2.06-0.67-3.56-1.11-4.5-1.31
			c-1.42-0.28-3.24-0.41-5.45-0.41c-2.17,0-4.41,0.45-6.7,1.36c-1.97,0.79-3.67,1.92-5.09,3.37c-1.34,1.34-2.38,3.03-3.13,5.06
			c-0.75,2.03-1.13,4.33-1.13,6.9c0,5,1.48,9.05,4.45,12.13c1.42,1.41,3.18,2.56,5.27,3.43c2.09,0.87,4.38,1.31,6.87,1.31
			c3.63,0,6.9-0.71,9.78-2.1l-0.95-3.07c-2.81,1.05-5.35,1.57-7.64,1.57c-2.77,0-5.19-0.57-7.28-1.71c-1.9-1.11-3.39-2.65-4.5-4.65
			c-1.11-1.99-1.66-4.3-1.66-6.95c0-2.73,0.48-5.08,1.45-7.07c0.97-2,2.36-3.52,4.18-4.59c1.74-0.95,4.15-1.42,7.23-1.42
			c1.54,0,2.85,0.14,3.94,0.42c1.08,0.28,2.34,0.72,3.76,1.33L714.95,392.16L714.95,392.16z M800.92,390.91l-11.14,32.55h4.09
			l3.08-9.52h12.44l3.08,9.52h4.38l-11.2-32.55H800.92L800.92,390.91z M798.07,410.58l5.04-15.57l5.15,15.57H798.07L798.07,410.58z
			 M844.61,392.16c-2.05-0.67-3.55-1.11-4.5-1.31c-1.42-0.28-3.24-0.41-5.45-0.41c-2.17,0-4.41,0.45-6.69,1.36
			c-1.98,0.79-3.68,1.92-5.1,3.37c-1.34,1.34-2.38,3.03-3.13,5.06c-0.75,2.03-1.13,4.33-1.13,6.9c0,5,1.48,9.05,4.44,12.13
			c1.42,1.41,3.17,2.56,5.27,3.43c2.09,0.87,4.38,1.31,6.87,1.31c3.63,0,6.89-0.71,9.78-2.1l-0.95-3.07
			c-2.8,1.05-5.36,1.57-7.65,1.57c-2.77,0-5.19-0.57-7.28-1.71c-1.89-1.11-3.4-2.65-4.5-4.65c-1.1-1.99-1.66-4.3-1.66-6.95
			c0-2.73,0.48-5.08,1.44-7.07c0.97-2,2.36-3.52,4.18-4.59c1.74-0.95,4.15-1.42,7.23-1.42c1.54,0,2.85,0.14,3.94,0.42
			c1.08,0.28,2.34,0.72,3.76,1.33L844.61,392.16L844.61,392.16z M938.76,416.52c0-3.11,1.27-4.66,3.79-4.66
			c2.53,0,3.8,1.55,3.8,4.66c0,3.1-1.26,4.66-3.8,4.66C940.03,421.18,938.76,419.62,938.76,416.52L938.76,416.52z M950.31,416.53
			c0-2.41-0.68-4.45-2.06-6.11c-1.37-1.66-3.27-2.49-5.69-2.49c-2.48,0-4.41,0.83-5.78,2.49c-1.37,1.66-2.06,3.69-2.06,6.11
			c0,2.48,0.68,4.53,2.02,6.19c1.35,1.65,3.29,2.49,5.82,2.49c2.43,0,4.32-0.84,5.69-2.49
			C949.62,421.07,950.31,419.01,950.31,416.53L950.31,416.53z M918.99,397.8c0-3.11,1.27-4.66,3.79-4.66c2.53,0,3.8,1.55,3.8,4.66
			c0,3.1-1.26,4.66-3.8,4.66C920.26,402.46,918.99,400.9,918.99,397.8L918.99,397.8z M923.02,425.21l24.67-36h-5.29l-24.6,36H923.02
			L923.02,425.21z M930.54,397.81c0-2.42-0.69-4.45-2.06-6.11c-1.37-1.65-3.27-2.49-5.69-2.49c-2.48,0-4.41,0.83-5.78,2.49
			c-1.37,1.65-2.06,3.69-2.06,6.11c0,2.48,0.68,4.53,2.02,6.19c1.35,1.66,3.29,2.49,5.82,2.49c2.43,0,4.32-0.83,5.69-2.49
			C929.85,402.34,930.54,400.28,930.54,397.81L930.54,397.81z M1056.07,392.03h5.77l-10.99,15.27l10.99,15.1h-6.24l-7.99-11.14
			l-7.98,11.14h-5.69l10.83-14.94l-10.83-15.43h5.85l8.22,11.4L1056.07,392.03L1056.07,392.03z M700.65,515.86h-4.82l12.73-31.7
			h-18.34v-4.43h23.81v3.16L700.65,515.86L700.65,515.86z M817.53,511.94c2.21,0,4.03-0.56,5.46-1.68c1.42-1.11,2.13-2.52,2.13-4.24
			c0-1.71-0.39-3.1-1.18-4.17c-0.79-1.05-2.14-2-4.04-2.83c-0.84-0.36-1.74-0.62-2.69-0.78c-2.16,0.57-3.98,1.48-5.45,2.73
			c-1.48,1.25-2.21,2.83-2.21,4.75c0,1.76,0.74,3.24,2.21,4.43C813.24,511.34,815.16,511.94,817.53,511.94L817.53,511.94z
			 M817.14,483.41c-1.48,0-2.77,0.43-3.88,1.3c-1.1,0.86-1.65,1.92-1.65,3.16c0,1.45,0.45,2.68,1.38,3.68
			c0.92,1,2.42,2.04,4.47,3.12c1.58-0.92,2.91-1.92,3.98-2.99c1.09-1.09,1.62-2.33,1.62-3.74c0-1.51-0.58-2.65-1.74-3.39
			C820.17,483.79,818.78,483.41,817.14,483.41L817.14,483.41z M817.37,478.98c3.22,0,5.79,0.75,7.71,2.25
			c1.93,1.49,2.89,3.61,2.89,6.34c0,1.82-0.47,3.39-1.43,4.69c-0.95,1.32-2.13,2.59-3.55,3.82c2.16,0.99,3.87,2.34,5.13,4.06
			c1.16,1.61,1.74,3.47,1.74,5.55c0,3.19-1.12,5.8-3.36,7.86c-2.24,2.06-5.23,3.09-8.97,3.09c-2.64,0-4.84-0.44-6.6-1.33
			c-1.77-0.89-3.26-2.14-4.47-3.75c-1.05-1.51-1.58-3.33-1.58-5.47c0-2.18,0.67-4.16,2.02-5.89c1.35-1.75,2.97-3.07,4.87-3.95
			c-1.11-0.91-1.95-1.66-2.53-2.24c-0.58-0.59-1.14-1.44-1.66-2.57c-0.53-1.12-0.8-2.45-0.8-4.01c0-2.47,1.03-4.48,3.09-6.06
			C811.92,479.77,814.42,478.98,817.37,478.98L817.37,478.98z M924.56,491.15c0,4.54,2.51,6.81,7.51,6.81
			c1.95,0,3.55-0.26,4.82-0.75c1.26-0.51,2.51-1.23,3.72-2.17c-0.05-3.54-0.84-6.25-2.34-8.12c-1.5-1.88-3.56-2.82-6.2-2.82
			c-2.37,0-4.22,0.67-5.54,2.01C925.23,487.47,924.56,489.15,924.56,491.15L924.56,491.15z M932.15,479.55
			c4.54,0,7.84,1.54,9.92,4.62c2.09,3.09,3.13,7.18,3.13,12.29c0,6.47-1.74,11.35-5.22,14.66c-3.48,3.29-8.63,4.93-15.42,4.93
			l-0.48-4.24c5.11,0,8.96-1.01,11.55-3.05c2.58-2.03,4.17-4.81,4.75-8.35c-2.48,1.4-5.35,2.1-8.61,2.1c-3.27,0-6.04-0.96-8.31-2.88
			c-2.27-1.92-3.39-4.72-3.39-8.4c0-3.22,1.04-5.96,3.12-8.25C925.26,480.7,928.25,479.55,932.15,479.55L932.15,479.55z
			 M1047.89,511.56c-1.05,0-1.89-0.31-2.5-0.95c-0.6-0.63-0.91-1.45-0.91-2.46c0-1,0.31-1.81,0.91-2.45
			c0.61-0.63,1.44-0.95,2.5-0.95c1.06,0,1.88,0.31,2.49,0.95c0.6,0.63,0.91,1.44,0.91,2.45c0,1-0.3,1.82-0.91,2.46
			C1049.77,511.25,1048.95,511.56,1047.89,511.56L1047.89,511.56z M1060.93,500.01v-4.43h-26.09v4.43H1060.93L1060.93,500.01z
			 M1047.89,490.84c-1.05,0-1.89-0.32-2.5-0.95c-0.6-0.63-0.91-1.46-0.91-2.46c0-1,0.31-1.81,0.91-2.45
			c0.61-0.63,1.44-0.95,2.5-0.95c1.06,0,1.88,0.32,2.49,0.95c0.6,0.63,0.91,1.44,0.91,2.45c0,1-0.3,1.83-0.91,2.46
			C1049.77,490.53,1048.95,490.84,1047.89,490.84L1047.89,490.84z M1061.17,590.26h-26.57v-3.73h26.57V590.26L1061.17,590.26z
			 M933.42,602.09c2.37,0,4.17-0.67,5.42-2.01c1.23-1.35,1.86-3.06,1.86-5.12c0-4.48-2.43-6.73-7.27-6.73
			c-2.06,0-3.73,0.28-5.02,0.84c-1.3,0.56-2.59,1.37-3.91,2.42c0.16,3.37,1.02,5.99,2.6,7.83
			C928.67,601.17,930.78,602.09,933.42,602.09L933.42,602.09z M933.73,583.68c3.27,0,6.02,0.96,8.26,2.88
			c2.24,1.92,3.36,4.7,3.36,8.33c0,3.26-1.03,6.03-3.09,8.32c-2.05,2.29-5.03,3.44-8.93,3.44c-4.53,0-7.91-1.52-10.12-4.54
			c-2.22-3.03-3.32-6.89-3.32-11.58c0-6.74,1.84-11.82,5.54-15.25c3.69-3.43,8.86-5.14,15.5-5.14l0.48,4.18
			c-5.17,0-9.11,1.07-11.83,3.21c-2.71,2.14-4.28,4.99-4.7,8.53C927.25,584.47,930.2,583.68,933.73,583.68L933.73,583.68z
			 M814.33,587.25c-1.64,0-3.74,0.24-6.33,0.74l-1.19-0.39v-17.49h20.56v4.18h-15.82v8.86c1.32-0.17,2.88-0.25,4.67-0.25
			c4.27,0,7.55,1.1,9.84,3.28c2.3,2.18,3.45,4.99,3.45,8.41c0,4.27-1.39,7.35-4.15,9.25c-2.77,1.9-6.26,2.85-10.48,2.85
			c-1.43,0-3-0.16-4.7-0.48c-1.72-0.32-3.36-0.74-4.95-1.26l1.27-4.5c3.37,1.04,6.15,1.56,8.31,1.56c3.32,0,5.81-0.59,7.47-1.77
			c1.67-1.18,2.5-3.04,2.5-5.56c0-2.63-0.81-4.52-2.42-5.68C820.74,587.83,818.08,587.25,814.33,587.25L814.33,587.25z
			 M693.66,593.33h11.93v-17.82L693.66,593.33L693.66,593.33z M716.51,593.33v4.43h-6.24v8.7h-4.67v-8.7h-17.87v-3.55l15.98-23.87
			h6.57v22.99H716.51L716.51,593.33z M711.21,693.04V697h-17.63v-3.96h6.8v-27.23l-5.61,2.18l-1.74-3.73l6.73-3.29h5.29v32.07
			H711.21L711.21,693.04z M805.87,664.15c2.11-1.16,4-2.03,5.65-2.63c1.66-0.6,3.77-0.91,6.3-0.91c1.74,0,3.43,0.38,5.09,1.15
			c1.67,0.76,3.04,1.94,4.11,3.55c1.09,1.6,1.63,3.54,1.63,5.81c0,2.73-0.68,5.19-2.02,7.34c-1.35,2.16-3.57,4.85-6.68,8.07
			l-6.17,6.48h15.11v4.37h-22.14v-3.4c2.64-3.01,5.5-6.13,8.61-9.34c2.21-2.32,3.43-3.62,3.64-3.88c2.06-2.37,3.4-4.19,4.04-5.45
			c0.63-1.28,0.95-2.67,0.95-4.2c0-1.85-0.61-3.3-1.83-4.35c-1.21-1.06-2.9-1.58-5.06-1.58c-1.63,0-3.01,0.2-4.15,0.59
			c-1.13,0.4-2.18,0.86-3.16,1.39c-0.97,0.53-1.7,0.91-2.17,1.12L805.87,664.15L805.87,664.15z M932.04,660.35
			c3.43,0,6.15,0.81,8.18,2.42c2.02,1.61,3.05,3.95,3.05,7.03c0,1.91-0.52,3.64-1.55,5.2c-1.02,1.57-2.3,2.77-3.82,3.61
			c2.26,0.69,4.04,1.72,5.34,3.11c1.29,1.39,1.94,3.3,1.94,5.71c0,3.2-1.16,5.7-3.48,7.49c-2.32,1.78-5.41,2.68-9.26,2.68
			c-2.32,0-4.39-0.25-6.21-0.75c-1.81-0.51-3.86-1.28-6.13-2.33l1.66-4.48c2.11,0.93,3.96,1.65,5.54,2.14
			c1.58,0.49,3.16,0.74,4.75,0.74c5.38,0,8.07-1.92,8.07-5.74c0-2.26-0.95-3.85-2.85-4.77c-1.9-0.92-4.74-1.38-8.54-1.38h-0.63
			v-4.62c6.86,0,10.28-2.04,10.28-6.14c0-1.99-0.55-3.36-1.62-4.12c-1.09-0.75-2.65-1.13-4.7-1.13c-1.48,0-2.93,0.21-4.36,0.64
			c-1.42,0.43-3.19,1.13-5.29,2.09l-1.67-4.23c2.16-1.12,4.11-1.93,5.85-2.43C928.32,660.61,930.14,660.35,932.04,660.35
			L932.04,660.35z M1050.03,726.27v11.14h-4.43v-11.14h-10.84v-4.43h10.84v-10.69h4.43v10.69h10.99v4.43H1050.03L1050.03,726.27z
			 M946.94,777.67v-4.43h-28.63v4.43H946.94L946.94,777.67z M946.94,765.91v-4.43h-28.63v4.43H946.94L946.94,765.91z M817.41,784.06
			c3.32,0,5.73-1.4,7.2-4.2c1.48-2.79,2.21-6.23,2.21-10.29c0-4.06-0.74-7.5-2.21-10.29c-1.47-2.79-3.88-4.2-7.2-4.2
			c-3.32,0-5.71,1.4-7.19,4.2c-1.48,2.8-2.21,6.23-2.21,10.29c0,4.06,0.74,7.5,2.21,10.29C811.7,782.66,814.09,784.06,817.41,784.06
			L817.41,784.06z M817.5,750.91c4.64,0,8.14,1.74,10.51,5.22c2.37,3.48,3.56,7.96,3.56,13.45c0,5.38-1.2,9.83-3.61,13.36
			c-2.39,3.53-5.88,5.3-10.47,5.3c-4.64,0-8.2-1.77-10.64-5.3c-2.46-3.53-3.68-7.98-3.68-13.36s1.22-9.84,3.68-13.37
			C809.3,752.67,812.86,750.91,817.5,750.91z"/>
	</g>
	<path class="st72" d="M1064.63,182.69H685.38c-9.78,0-17.79,7.55-17.79,16.78v93.82c0,9.23,8.01,16.78,17.79,16.78h379.25
		c9.79,0,17.79-7.55,17.79-16.78v-93.82C1082.42,190.24,1074.41,182.69,1064.63,182.69z"/>
	<path class="st73" d="M732.18,246.62v37.09l-6.91-6.87v-26.11L732.18,246.62L732.18,246.62z M1059,246.62v37.09l-6.91-6.87v-26.11
		L1059,246.62L1059,246.62z M1057.09,284.63l-7.01-6.91h-23.21l-6.88,6.91H1057.09L1057.09,284.63z M1019.99,245.32l6.88,3.46h23.21
		l7.01-3.46l-7.01-3.45h-23.21L1019.99,245.32L1019.99,245.32z M1057.09,206.27h-37.09l6.88,6.9h23.21L1057.09,206.27
		L1057.09,206.27z M1017.82,246.62l6.9,4.11v26.11l-6.9,6.87V246.62L1017.82,246.62z M1017.82,244.27v-37.09l6.9,6.87v26.11
		L1017.82,244.27L1017.82,244.27z M1059,244.27l-6.91-4.11v-26.11l6.91-6.87V244.27L1059,244.27z M1004.53,246.62v37.09l-6.91-6.87
		v-26.11L1004.53,246.62L1004.53,246.62z M1002.61,284.63l-7.01-6.91h-23.2l-6.87,6.91H1002.61L1002.61,284.63z M965.53,245.32
		l6.87,3.46h23.2l7.01-3.46l-7.01-3.45h-23.2L965.53,245.32L965.53,245.32z M1002.61,206.27h-37.09l6.87,6.9h23.2L1002.61,206.27
		L1002.61,206.27z M963.35,246.62l6.91,4.11v26.11l-6.91,6.87V246.62L963.35,246.62z M963.35,244.27v-37.09l6.91,6.87v26.11
		L963.35,244.27L963.35,244.27z M1004.53,244.27l-6.91-4.11v-26.11l6.91-6.87V244.27L1004.53,244.27z M950.06,246.62v37.09
		l-6.9-6.87v-26.11L950.06,246.62L950.06,246.62z M948.15,284.63l-7.01-6.91h-23.21l-6.87,6.91H948.15L948.15,284.63z
		 M911.06,245.32l6.87,3.46h23.21l7.01-3.46l-7.01-3.45h-23.21L911.06,245.32L911.06,245.32z M948.15,206.27h-37.09l6.87,6.9h23.21
		L948.15,206.27L948.15,206.27z M908.88,246.62l6.91,4.11v26.11l-6.91,6.87V246.62L908.88,246.62z M908.88,244.27v-37.09l6.91,6.87
		v26.11L908.88,244.27L908.88,244.27z M950.06,244.27l-6.9-4.11v-26.11l6.9-6.87V244.27L950.06,244.27z M895.59,246.62v37.09
		l-6.91-6.87v-26.11L895.59,246.62L895.59,246.62z M893.68,284.63l-7.01-6.91h-23.2l-6.87,6.91H893.68L893.68,284.63z
		 M856.59,245.32l6.87,3.46h23.2l7.01-3.46l-7.01-3.45h-23.2L856.59,245.32L856.59,245.32z M893.68,206.27h-37.09l6.87,6.9h23.2
		L893.68,206.27L893.68,206.27z M854.42,246.62l6.9,4.11v26.11l-6.9,6.87V246.62L854.42,246.62z M854.42,244.27v-37.09l6.9,6.87
		v26.11L854.42,244.27L854.42,244.27z M895.59,244.27l-6.91-4.11v-26.11l6.91-6.87V244.27L895.59,244.27z M841.12,246.62v37.09
		l-6.91-6.87v-26.11L841.12,246.62L841.12,246.62z M839.21,284.63l-7.01-6.91h-23.21l-6.87,6.91H839.21L839.21,284.63z
		 M802.12,245.32l6.87,3.46h23.21l7.01-3.46l-7.01-3.45h-23.21L802.12,245.32L802.12,245.32z M839.21,206.27h-37.09l6.87,6.9h23.21
		L839.21,206.27L839.21,206.27z M799.95,246.62l6.91,4.11v26.11l-6.91,6.87V246.62L799.95,246.62z M799.95,244.27v-37.09l6.91,6.87
		v26.11L799.95,244.27L799.95,244.27z M841.12,244.27l-6.91-4.11v-26.11l6.91-6.87V244.27L841.12,244.27z M786.65,246.62v37.09
		l-6.9-6.87v-26.11L786.65,246.62L786.65,246.62z M784.74,284.63l-7.01-6.91h-23.2l-6.88,6.91H784.74L784.74,284.63z M747.65,245.32
		l6.88,3.46h23.2l7.01-3.46l-7.01-3.45h-23.2L747.65,245.32L747.65,245.32z M784.74,206.27h-37.09l6.88,6.9h23.2L784.74,206.27
		L784.74,206.27z M745.48,246.62l6.91,4.11v26.11l-6.91,6.87V246.62L745.48,246.62z M745.48,244.27v-37.09l6.91,6.87v26.11
		L745.48,244.27L745.48,244.27z M786.65,244.27l-6.9-4.11v-26.11l6.9-6.87V244.27L786.65,244.27z M730.27,284.63l-7.01-6.91h-23.2
		l-6.88,6.91H730.27L730.27,284.63z M693.18,245.32l6.88,3.46h23.2l7.01-3.46l-7.01-3.45h-23.2L693.18,245.32L693.18,245.32z
		 M730.27,206.27h-37.09l6.88,6.9h23.2L730.27,206.27L730.27,206.27z M691.01,246.62l6.91,4.11v26.11l-6.91,6.87V246.62
		L691.01,246.62z M691.01,244.27v-37.09l6.91,6.87v26.11L691.01,244.27L691.01,244.27z M732.18,244.27l-6.91-4.11v-26.11l6.91-6.87
		V244.27z"/>
</g>
</svg>
