<?xml version="1.0" encoding="utf-8"?>
<!-- Generator: Adobe Illustrator 26.1.0, SVG Export Plug-In . SVG Version: 6.00 Build 0)  -->
<svg version="1.1" xmlns="http://www.w3.org/2000/svg" xmlns:xlink="http://www.w3.org/1999/xlink" x="0px" y="0px"
	 viewBox="0 0 1750 1000" style="enable-background:new 0 0 1750 1000;" xml:space="preserve">
<style type="text/css">
	.st0{fill:#FFFFFF;}
	.st1{fill:none;}
	.st2{fill:#F0B890;}
	.st3{fill:#90D3D2;}
	.st4{fill:#EE6D4A;}
	.st5{fill:#231F20;}
</style>
<g id="background">
	<rect x="-5.61" y="-204.89" class="st0" width="1754.05" height="1240.56"/>
	<path class="st1" d="M536.79,622.69c2.4-2.61,5.2-4.9,8.39-6.77c0.47-0.28,0.95-0.54,1.43-0.79c-1.59-2.63-3.1-5.31-4.49-8.05
		c-5.36-10.56-9.33-21.37-11.9-32.57c-2.19-2.21-4.16-4.69-5.85-7.41c-0.69-1.1-1.38-2.2-2.09-3.28c-0.76-0.65-1.51-1.31-2.24-1.98
		c-1.51-1.38-2.94-2.86-4.26-4.43c-3-3.55-6-7.25-8.52-11.17c-0.96-1.49-1.77-3.07-2.52-4.68c-3.8-4.04-7.75-7.93-11.84-11.68
		c-4.7-1.61-9.28-3.81-13.63-6.15c-2.95-1.59-5.76-3.41-8.44-5.41c-6.69-4.98-13.07-10.16-18.54-16.31
		c-4.17-2.2-8.42-4.26-12.72-6.19c-1.38-0.54-2.75-1.07-4.14-1.58c-5.85,5.52-11.38,11.37-16.78,17.34c1.44,1.98,2.9,3.94,4.37,5.9
		c5.18,6.53,10.54,12.9,16.1,19.12c23.01,25.74,48.82,48.69,76.06,69.84c2.7,2.08,5.39,4.15,8.09,6.24
		c-2.45-1.9-4.91-3.79-7.36-5.69C522.8,612.3,529.77,617.52,536.79,622.69z"/>
	<path class="st1" d="M447.6,284.72c-0.4,0.1-0.8,0.21-1.19,0.32c-0.11,0.06-0.22,0.13-0.33,0.19c-0.25,0.25-0.5,0.5-0.74,0.75
		c-0.54,0.88-1.05,1.77-1.54,2.68c-0.66,2.06-1.22,4.15-1.67,6.26c-0.17,2.92-0.16,5.83,0.02,8.75c0.55,2.63,1.25,5.23,2.1,7.78
		c1.7,3.28,3.64,6.42,5.76,9.46c5.36,6.29,11.39,11.95,17.79,17.17c20.62,15.2,43.36,27.55,64.73,41.64
		c25.46,16.79,50.29,34.62,74.39,53.39c0.63-8.98,1.1-17.97,1.38-26.97c0.34-11.03,0.42-22.06,0.24-33.09
		c-0.13-8.01-0.26-16.05-0.99-24.04c-0.42-2.25-0.94-4.47-1.55-6.67c-2.24,0.95-4.53,1.74-6.95,2.21
		c-8.64,1.68-15.07,1.98-23.72-0.37c-7.21-1.96-14.26-6.28-19.53-11.54c-5.72-5.7-9.58-12.71-12.27-20.21
		c-3.96,0.75-8.01,1.13-11.98,1.34c-9.48,0.5-19.71-1.4-28.55-4.96c-9.36-3.77-18.12-7.92-26.81-12.97
		c-4.92-2.86-9.82-5.68-14.92-8.16c-3.27-1.18-6.61-2.16-10-2.91C450.03,284.71,448.81,284.69,447.6,284.72z"/>
	<path class="st1" d="M680.03,495.02c4.68,4.31,8.32,8.42,12.09,13.83c4.18,6.01,5.99,12.63,6.94,19.71
		c1.31,9.73-0.03,19.7-5.14,28.29c-1.91,3.21-3.89,5.92-6.11,8.34c2.94-1.53,5.82-3.17,8.54-5.07c1.31-1.13,2.53-2.34,3.68-3.63
		c1.03-1.53,1.95-3.12,2.76-4.77c0.88-2.46,1.55-4.98,2.02-7.55c0.28-3.28,0.26-6.56-0.03-9.83c-0.69-3.83-1.77-7.55-3.16-11.19
		c-2.78-6-6.29-11.61-10.23-16.93c-4.35-5.41-9.09-10.43-13.81-15.52c-0.65-0.7-1.27-1.41-1.88-2.12c-0.25,0.59-0.51,1.18-0.77,1.76
		C676.63,491.91,678.33,493.46,680.03,495.02z"/>
	<path class="st1" d="M1024.49,425.8c-1.86,0.26-3.73,0.5-5.6,0.74c1.92,0.08,3.84,0.3,5.75,0.63
		C1024.58,426.72,1024.54,426.26,1024.49,425.8z"/>
	<path class="st1" d="M1424.02,358.7c0.63,1.12,1.28,2.23,1.96,3.32c0.57-1.39,1.26-2.75,2.07-4.07c-1.54-0.11-3.08-0.22-4.62-0.33
		C1423.63,357.98,1423.82,358.34,1424.02,358.7z"/>
	<path class="st1" d="M1256.77,662.45c-0.85,0.36-1.7,0.72-2.56,1.08c0.86-0.36,1.72-0.72,2.57-1.09
		C1256.78,662.45,1256.77,662.45,1256.77,662.45z"/>
	<path class="st1" d="M1342.57,572.38c-0.8-0.48-1.61-0.96-2.43-1.43c-0.83,1.15-1.73,2.26-2.7,3.33c2.03-0.45,4.06-0.88,6.1-1.3
		C1343.22,572.78,1342.89,572.58,1342.57,572.38z"/>
	<path class="st1" d="M1315,387.95c-6.04-0.63-12.34-1.2-18.23-2.9c-1.41-0.4-2.79-0.89-4.14-1.43c-4.19-1.68-8.48-3.31-12.5-5.4
		c-1.01-0.52-1.99-1.1-2.95-1.72c-1.05,1.21-2.12,2.39-3.24,3.54c-4.32,4.45-9.26,8.21-14.4,11.65c-0.18,0.13-0.35,0.26-0.53,0.38
		c-7.85,6.08-16,11.85-24.6,16.79c-8.9,5.1-18.27,9.19-27.74,13.07c-1.45,0.67-2.91,1.35-4.37,2.02c0.2,0.83,0.37,1.67,0.52,2.5
		c0.35,1.96,0.63,3.92,0.88,5.9c18.34,2.06,36.33,5.96,54.29,10.18c14.78,3.47,29.54,6.93,44.55,9.23
		c28.24,3.32,57.02,3.4,85.25,0.07c0.41-0.06,0.82-0.13,1.23-0.19c0-0.42,0-0.83,0.01-1.27c0.03-0.86,0.11-1.71,0.11-2.57
		c0-0.19,0-0.38,0-0.57c-0.3-1.18-0.64-2.35-1.02-3.51c-2.32-4.49-5.07-8.72-8.06-12.81c-6.91-8.65-14.09-17.12-20.24-26.33
		c-4.41-6.59-7.73-13.79-10.81-21.08c-8.24,2.61-16.84,3.92-25.47,4.56C1320.69,388.28,1317.83,388.24,1315,387.95z"/>
	<path class="st2" d="M687.8,565.2c2.22-2.43,4.21-5.14,6.11-8.34c5.11-8.59,6.45-18.57,5.14-28.29c-0.95-7.08-2.76-13.7-6.94-19.71
		c-3.77-5.41-7.41-9.52-12.09-13.83c-1.69-1.56-3.4-3.11-5.1-4.66c0.26-0.59,0.51-1.18,0.77-1.76c-2.86-3.35-5.29-6.89-7.02-11
		c-2.03-4.82-2.67-9.71-2.18-14.74c-0.07-0.06-0.14-0.12-0.2-0.18c-2.48-2.27-3.81-5.62-4.24-8.85c-0.47-3.51,0.18-6.72,1.83-9.83
		c1.57-2.98,5.79-6.55,9.21-7.08c5.26-0.83,10.51-1.65,15.77-2.48c1.86-0.75,3.75-1.38,5.66-1.91c0.59-2.88,1.11-5.77,1.56-8.69
		c2.02-13.15,3.63-26.13,2.87-39.43c-0.74-12.8-2.48-25.94-6.33-38.21c-3.89-12.4-9.28-24.26-16.45-35.02
		c-6.41-15.29-17.1-28.33-31.29-37.5c-3.09-2-6.4-3.71-9.83-5.14c-4.71-3.68-9.51-7.25-14.32-10.77
		c-15.64-11.47-32.09-21.83-49.21-30.97c-11.27-6.02-22.88-11.81-34.77-16.54c-25.75-11.02-52.43-20.8-80.1-25.46
		c-16.57-2.79-33.45-4.71-50.26-3.17c-16.32,1.5-32.13,4.81-47.6,10.16c-15.48,5.36-30.47,12.05-45.53,18.5
		c-18.51,7.69-37.5,14.29-56.71,20.18c-2.3,0.29-4.61,0.59-6.9,0.88c-38.55,4.99-76.83,11.43-114.73,20.12
		c-15.87,3.64-31.55,8.15-47.19,12.67c-1.08-0.08-2.14-0.1-3.2-0.05c-10.15,0.45-20.68,3.79-27.76,11.5
		c-2.59,2.83-4.92,5.97-6.79,9.35c-0.82,1.01-1.54,2.05-2.15,3.08c-0.93,1.59-1.71,3.39-2.31,5.3c-0.64,1.48-1.21,2.98-1.7,4.49
		c-1.36,4.19-1.66,8.83-2.06,13.18c-0.21,2.25-0.24,4.53-0.32,6.79c-0.18,4.65-0.35,9.3-0.52,13.95
		c-0.65,18.46-1.12,36.93-1.48,55.41c-0.36,18.61,0.01,37.26,0.25,55.87c0.24,18.49,0.66,36.97,1.38,55.44
		c0.37,9.31,0.77,18.63,1.21,27.94c0.38,8.02,1.32,15.96,2.29,23.92c-0.49,9.2-1.01,18.4-1.59,27.6c-0.2,5.25,0.9,10.15,3.29,14.7
		c1.54,4.73,4.17,8.82,7.89,12.28c7.41,6.8,16.69,11.3,26.98,11.17c29.05-0.37,58.2-0.81,87.06-4.48
		c17.34-2.2,34.59-4.76,51.49-9.33c16.63-4.5,32.66-10.93,48.22-18.29c12.72-6.02,25.11-12.73,37.94-18.49
		c6.96-2.73,14.07-5.02,21.39-6.48c2.69-0.18,5.39-0.21,8.09-0.08c2.61,0.58,5.17,1.33,7.71,2.24c5.08,1.59,10.15,1.82,15.23,0.68
		c2.04-0.09,4.03-0.4,5.95-0.9c7.76,9.95,15.93,19.59,24.5,28.84c22.81,24.62,48.37,46.6,74.51,67.6
		c5.52,4.43,11.12,8.75,16.72,13.08c-2.45-1.9-4.91-3.79-7.36-5.69c22.61,18.02,46.17,34.89,69.62,51.79
		c5.72,3.32,11.89,4.99,18.51,5.01c5.05,0.19,9.76-0.86,14.13-3.16c4.55-1.48,8.48-4.01,11.8-7.58c2.51-2.53,4.59-5.3,6.25-8.33
		c3.32,1.46,6.64,2.9,9.97,4.31c5.81,3.37,12.08,5.06,18.8,5.09c6.72-0.02,12.99-1.72,18.8-5.09c10.7-6.26,19.38-19.34,18.45-32.17
		c-0.54-7.51-1.47-15.16-3.46-22.45c-1.88-6.87-4.89-13.52-7.77-19.99c-3.62-8.13-8.41-15.66-13.48-22.96
		c-8.69-12.52-18.31-24.55-25.41-38.05c5.65,2.59,11.42,4.92,17.24,7.04c7.22,2.63,15.33,3.94,22.99,3.48
		c4.53-0.27,9.04-0.81,13.41-1.83c1.5-1.21,3.04-2.35,4.59-3.43C673.5,571.89,680.82,568.84,687.8,565.2z M461.24,287.67
		c5.1,2.47,10.01,5.3,14.92,8.16c8.69,5.05,17.45,9.21,26.81,12.97c8.84,3.56,19.07,5.46,28.55,4.96c3.97-0.21,8.02-0.59,11.98-1.34
		c2.69,7.5,6.55,14.51,12.27,20.21c5.27,5.26,12.31,9.57,19.53,11.54c8.65,2.35,15.08,2.06,23.72,0.37
		c2.42-0.47,4.71-1.26,6.95-2.21c0.62,2.2,1.13,4.42,1.55,6.67c0.73,7.98,0.86,16.03,0.99,24.04c0.18,11.03,0.1,22.07-0.24,33.09
		c-0.28,9-0.75,17.99-1.38,26.97c-24.1-18.77-48.93-36.6-74.39-53.39c-21.37-14.09-44.11-26.43-64.73-41.64
		c-6.4-5.22-12.43-10.89-17.79-17.17c-2.11-3.03-4.06-6.18-5.76-9.46c-0.85-2.55-1.55-5.15-2.1-7.78c-0.18-2.91-0.18-5.83-0.02-8.75
		c0.45-2.11,1.01-4.2,1.67-6.26c0.49-0.91,1-1.8,1.54-2.68c0.24-0.25,0.49-0.5,0.74-0.75c0.11-0.07,0.22-0.13,0.33-0.19
		c0.4-0.11,0.8-0.22,1.19-0.32c1.21-0.03,2.43-0.01,3.65,0.04C454.64,285.51,457.97,286.49,461.24,287.67z M515.18,606.42
		c-27.24-21.15-53.05-44.1-76.06-69.84c-5.55-6.21-10.92-12.59-16.1-19.12c-1.47-1.95-2.93-3.92-4.37-5.9
		c5.4-5.96,10.93-11.82,16.78-17.34c1.38,0.51,2.76,1.04,4.14,1.58c4.3,1.93,8.54,4,12.72,6.19c5.47,6.15,11.85,11.33,18.54,16.31
		c2.69,2,5.49,3.82,8.44,5.41c4.35,2.34,8.93,4.54,13.63,6.15c4.09,3.74,8.04,7.64,11.84,11.68c0.75,1.61,1.56,3.19,2.52,4.68
		c2.52,3.92,5.52,7.63,8.52,11.17c1.32,1.56,2.75,3.04,4.26,4.43c0.73,0.67,1.48,1.33,2.24,1.98c0.71,1.09,1.4,2.18,2.09,3.28
		c1.69,2.72,3.66,5.2,5.85,7.41c2.56,11.21,6.54,22.02,11.9,32.57c1.39,2.74,2.9,5.42,4.49,8.05c-0.48,0.25-0.95,0.51-1.43,0.79
		c-3.19,1.87-6,4.15-8.39,6.77c-7.02-5.17-13.99-10.39-20.89-15.72c2.45,1.9,4.91,3.79,7.36,5.69
		C520.57,610.58,517.87,608.5,515.18,606.42z"/>
	<path class="st3" d="M936.1,491.73c-8.74-4.67-18.4-3.86-27.33-0.42c-8.89,3.43-17.91,6.83-27.32,8.5
		c-2.29,0.2-4.59,0.25-6.88,0.12c-0.95-0.21-1.9-0.46-2.83-0.75c-0.62-0.33-1.22-0.68-1.82-1.06c-0.54-0.5-1.06-1.02-1.56-1.56
		c-0.6-0.94-1.15-1.91-1.66-2.91c-1.53-4.41-2.42-9.01-3.1-13.63c-0.78-6.21-1.45-12.44-2.49-18.61c-1.19-7.15-3.36-13.71-6.4-20.3
		c-4.88-10.58-14.82-20.39-27.3-19.59c-8.02,0.51-15.99,4.48-19.93,11.81c-2.59,4.82-3.83,9.95-3.82,15.43
		c0.01,4.38,0.72,8.95,1.9,13.18c0.66,2.37,1.4,4.67,1.92,7.04c0.11,1.93,0.1,3.86-0.04,5.78c-0.49,2.48-1.16,4.9-2.01,7.27
		c-1.18,2.42-2.53,4.73-4.06,6.94c-1.61,1.87-3.35,3.62-5.21,5.24c-2.08,1.42-4.26,2.68-6.53,3.77c-3.02,1.09-6.11,1.91-9.26,2.49
		c-3.78,0.32-7.57,0.3-11.35-0.03c-4.08-0.72-8.07-1.81-11.95-3.26c-3.91-1.85-7.63-4.06-11.15-6.58c-3.12-2.6-6.03-5.42-8.74-8.44
		c-0.86-3.48-1.56-7-2.11-10.54c-0.58-5.13-0.85-10.3-1.27-15.45c-0.23-2.84-1.06-5.49-2.42-7.72c0.08-0.66,0.11-1.32,0.09-1.97
		c-0.39-8.8-7.26-16.69-16.51-16.51c-6.99,0.13-13.83,0.72-20.43,2.54c-1.91,0.53-3.79,1.16-5.66,1.91
		c-5.26,0.83-10.51,1.65-15.77,2.48c-3.42,0.54-7.64,4.11-9.21,7.08c-1.65,3.11-2.3,6.32-1.83,9.83c0.43,3.23,1.76,6.58,4.24,8.85
		c0.07,0.06,0.14,0.12,0.2,0.18c-0.5,5.03,0.14,9.92,2.18,14.74c1.73,4.11,4.16,7.66,7.02,11c0.61,0.71,1.23,1.42,1.88,2.12
		c4.72,5.09,9.47,10.11,13.81,15.52c3.94,5.31,7.44,10.92,10.23,16.93c1.39,3.64,2.46,7.36,3.16,11.19
		c0.29,3.27,0.31,6.55,0.03,9.83c-0.47,2.57-1.14,5.09-2.02,7.55c-0.82,1.65-1.73,3.24-2.76,4.77c-1.14,1.29-2.37,2.5-3.68,3.63
		c-2.73,1.9-5.6,3.54-8.54,5.07c-6.97,3.64-14.3,6.7-20.77,11.21c-1.55,1.08-3.09,2.22-4.59,3.43c-4.79,3.86-9.12,8.43-11.74,14.01
		c-4.51,9.62-6.04,20.5-2.35,30.72c1.6,4.44,3.55,8.65,6.38,12.43c3.84,5.13,7.71,8.95,12.88,12.77c7.19,5.33,16.34,8.45,25.13,9.87
		c9.55,1.53,19.1,1.99,28.75,1.95c10.08-0.04,20.23-1.62,28.38-7.92c10.96-8.46,14.23-22.31,10.56-35.36
		c-2.38-8.44-7.01-15.98-10.69-23.88c-0.56-1.58-1.02-3.18-1.37-4.82c-0.1-1.69-0.1-3.38,0.02-5.07c0.43-2.16,1.02-4.28,1.77-6.36
		c1.11-2.27,2.38-4.45,3.82-6.53c1.6-1.86,3.33-3.6,5.19-5.21c1.7-1.17,3.48-2.22,5.33-3.14c1.58-0.55,3.18-1,4.82-1.34
		c1.63-0.1,3.25-0.09,4.88,0.02c1.83,0.37,3.62,0.88,5.38,1.49c2,0.99,3.91,2.12,5.75,3.39c1.99,1.72,3.85,3.58,5.56,5.58
		c1.56,2.25,2.94,4.6,4.14,7.07c0.83,2.31,1.49,4.67,1.97,7.08c0.14,2,0.14,3.99,0.01,5.99c-0.47,2.34-1.11,4.63-1.73,6.94
		c-1.27,4.72-2.11,9.34-2.72,14.21c-0.57,4.56-0.26,9.55,1.19,13.91c0.89,2.69,1.99,5.5,3.6,7.88c2.81,4.17,5.41,6.56,9.39,9.53
		c4.03,3,8.97,4.72,13.64,6.46c3.69,1.38,7.47,2.53,11.31,3.45c8.88,2.14,18.15,3.34,27.28,3.45c10.18,0.13,20.54-1.19,30.42-3.63
		c12.03-2.97,17.26-17.47,11.33-27.85c-2.58-4.51-4.89-9.17-6.98-13.92c-4.81-11.96-8.27-24.48-10.25-37.22
		c-0.35-3.39-0.44-6.78-0.19-10.17c0.17-0.85,0.37-1.69,0.6-2.52c3.33,0.89,6.61,2,10.03,2.55c7.13,1.16,13.48,1.13,20.6-0.45
		c5.14-1.14,10.3-3.33,14.79-6.07c4.39-2.68,8.72-6.05,12-10.06c4.27-5.21,7.68-10.56,9.48-17.16c1.8-6.56,1.76-13.47,0.2-20.07
		C949.07,503.61,943.59,495.73,936.1,491.73z"/>
	<path class="st4" d="M1137.61,593.78c1.16-4.88,3.4-9.13,6.72-12.76c2.65-4.08,6.15-7.31,10.53-9.66
		c7.09-5.35,14.42-10.38,21.96-15.07c-10.45-0.97-21-2.46-31.1-5.31c-6.8-1.92-13.29-4.6-19.74-7.49c-3.32-1.49-6.54-3.22-9.51-5.32
		c-4.87-3.45-9.92-7.08-13.71-11.77c-5.45-6.76-10.16-13.53-12.12-22.23c-0.96-4.24-1.71-8.7-1.55-13.06
		c0.15-4.19,0.7-8.55,1.76-12.61c1.06-4.07,2.93-8.09,4.78-11.82c0.79-1.58,1.75-3.05,2.78-4.48c5.27-7.33,10.5-12.47,18.04-17.57
		c1.66-1.13,3.44-2.07,5.27-2.9c0.77-0.35,1.54-0.69,2.31-1.04c-0.93-0.18-1.85-0.37-2.78-0.58c-4.17-0.99-7.81-2.91-10.91-5.74
		c-2.41-1.43-4.33-3.34-5.75-5.75c-1.99-2-3.36-4.36-4.12-7.08c-1.45-2.5-2.18-5.2-2.19-8.09c-0.95-4.26-0.76-8.53,0.57-12.79
		c1.08-2.55,2.16-5.11,3.23-7.66c0.27-0.35,0.54-0.7,0.82-1.06c-0.16-0.11-0.32-0.22-0.48-0.33c-1.96-1.69-3.77-3.52-5.46-5.49
		c-1.59-2.28-3-4.67-4.21-7.17c-0.8-2.21-1.43-4.46-1.89-6.76c-0.11-1.66-0.13-3.32-0.03-4.98c0.26-1.24,0.59-2.46,0.99-3.67
		c0.44-0.85,0.91-1.68,1.42-2.49c1.85-2.95,2.6-6.47,2.39-9.97c0.33-0.43,0.63-0.88,0.87-1.34c1.02-1.94,1.59-4.04,1.68-6.22
		c0.12-2.77-1.4-6.92-3.61-8.72c-4.57-3.72-8.8-6.09-14.21-8.36c1.11,0.47,2.22,0.94,3.33,1.41c-2.67-1.57-5.74-2.33-8.78-2.81
		c-3.25-0.52-6.6-1-9.9-0.95c-6.58,0.1-13.06,2.43-18.9,5.28c-4.25,2.07-6.75,6.79-7.35,11.25c-0.58,4.31,0.53,7.74,2.8,11.04
		c-0.1-0.13-0.21-0.27-0.31-0.4c0.15,0.19,0.29,0.39,0.44,0.59c0.13,0.19,0.27,0.38,0.42,0.57c1.1,1.54,2.06,3.16,2.9,4.86
		c0.67,1.9,1.2,3.84,1.58,5.82c0.17,2.3,0.15,4.59-0.04,6.89c-0.48,2.6-1.18,5.14-2.09,7.63c-1.04,2.17-2.22,4.26-3.58,6.24
		c-1.17,1.35-2.42,2.61-3.77,3.79c-1.28,0.86-2.6,1.64-3.98,2.33c-3.86,1.37-7.85,2.24-11.89,2.86c-8.87,1.05-17.92,1.58-26.5,4.18
		c-9.09,2.75-18.48,7.42-24.66,14.84c-3.69,4.43-6.93,9.3-8.25,15.01c-1.34,5.76-1.2,10.98-0.07,16.74
		c1.75,8.9,8.13,18.3,16.42,22.3c6.79,3.28,14.17,4.31,21.52,2.14c4.95-1.47,9.15-4.24,13.68-6.48c0.78-0.26,1.57-0.47,2.36-0.65
		c0.76-0.03,1.52-0.02,2.28,0.01c1.2,0.27,2.37,0.6,3.53,1c1.85,0.92,3.61,1.99,5.31,3.16c2.34,1.99,4.49,4.18,6.48,6.53
		c1.95,2.74,3.66,5.63,5.1,8.67c1.73,4.59,2.99,9.36,3.8,14.2c0.44,4.5,0.48,9.02,0.07,13.52c-0.64,3.6-1.58,7.12-2.84,10.54
		c-1.29,2.71-2.78,5.29-4.49,7.76c-1.88,2.21-3.93,4.26-6.14,6.14c-2.16,1.51-4.43,2.85-6.8,4c-2.06,0.74-4.15,1.33-6.29,1.76
		c-7.43,0.44-14.76-1.47-22.2-0.92c-6.28,0.46-12.56,1.76-17.91,5.28c-4.75,3.12-9.33,7.29-11.79,12.51
		c-3.88,8.21-4.93,18.41,0.95,26.01c4,5.17,11.03,8.16,17.1,10.13c8.33,2.7,17.53,3.06,26.23,2.83c7.23-0.19,14.42-0.8,21.63-0.15
		c2.67,0.47,5.29,1.12,7.84,2.02c0.95,0.48,1.88,1.01,2.78,1.59c0.39,0.36,0.77,0.74,1.14,1.12c0.21,0.33,0.4,0.67,0.59,1.01
		c0.15,0.49,0.29,0.99,0.41,1.49c0.03,0.96,0.02,1.92-0.04,2.88c-2.37,11.86-9.13,22.44-11.13,34.43
		c-1.41,8.48-1.62,17.13,1.41,25.34c2.96,8.01,7.3,15.34,13.56,21.25c12.47,11.76,29.87,17.44,46.73,13.27
		c14.31-3.54,27.29-14.77,33.25-28.2c3.56-8.02,6.01-16.67,5.13-25.54c-0.57-5.73-1.71-10.53-3.94-15.8
		c-1.51-3.57-3.23-7.04-4.84-10.57c-0.48-1.31-0.9-2.64-1.22-3.99c-0.01-0.45-0.01-0.9,0-1.35c0.16-0.68,0.35-1.36,0.56-2.02
		c0.48-0.92,1.01-1.81,1.59-2.68c0.85-0.94,1.74-1.84,2.69-2.69c1.25-0.83,2.55-1.57,3.89-2.25c2-0.71,4.03-1.27,6.1-1.71
		C1136.37,598.9,1136.81,596.34,1137.61,593.78z M1018.89,426.55c1.87-0.24,3.74-0.48,5.6-0.74c0.05,0.46,0.09,0.92,0.15,1.37
		C1022.73,426.84,1020.81,426.63,1018.89,426.55z"/>
	<path class="st4" d="M1202.3,423.95c-5.39,2.48-10.81,4.94-16.29,7.24c4.2,0.02,8.4,0.24,12.59,0.63c1.7,0.16,3.4,0.34,5.1,0.53
		c-0.25-1.97-0.53-3.94-0.88-5.9C1202.67,425.62,1202.5,424.79,1202.3,423.95z"/>
	<path class="st2" d="M1733.25,813.69c0.03-0.68,0.03-1.37,0.02-2.07c-0.99-40.81-1.99-81.63-2.98-122.44
		c-0.5-20.58-1-41.17-1.5-61.75c-0.25-10.2-0.5-20.41-0.75-30.61c-0.32-13.08,0.12-26.44-2.36-39.34c-0.54-2.83-1.67-5.07-2.83-7.81
		c-1.08-2.55-1.86-4.97-3.43-7.19c-5.56-7.88-9.63-11.79-17.55-17.29c-3.71-2.58-8.07-4.21-12.06-6.32
		c-6.87-3.63-13.43-7.79-19.71-12.35c-11.79-9.66-22.36-20.7-31.91-32.57c-20.18-27.23-35.21-57.79-49.65-88.35
		c-7.66-16.2-14.95-32.67-23.44-48.45c-1.86-3.46-3.84-6.85-6.08-10.08c-3.99-5.79-8.26-11.57-13.17-16.62
		c-9.96-10.23-22.34-17.37-35.92-21.59c-11.17-3.47-23.13-4.14-34.76-4.48c-9.74-0.28-19.48-0.83-29.21-1.24
		c-19.66-0.84-39.32-1.68-58.98-2.52c-19.28-0.82-38.58-1.95-57.89-1.42c-14.25,0.39-28.63,2.07-42.62,5.28
		c-8.06-1.87-17.45-1.47-25.16,0.77c-9.54,2.77-16.36,7.17-23.72,13.66c-1.13,1-2.09,2.15-3.04,3.32c-1.05,1.31-2.14,2.65-3.21,4.01
		c-6.62,3.64-13.12,7.53-19.53,11.59c-7.87,4.99-15.32,10.76-22.86,16.23c-7.87,5.71-15.66,11.52-23.4,17.39
		c-1.94,1.47-3.86,2.96-5.81,4.42c-2.31,1.72-4.95,3.26-6.98,5.29c-0.94,0.94-1.87,2.05-2.73,3.25c-3.57,1.69-7.15,3.37-10.69,5.14
		c-8.46,4.22-17.05,8.2-25.73,11.93c-2.16,1.67-4.33,3.34-6.49,5.01c-1.4,1.81-2.8,3.62-4.2,5.44c-0.27,0.35-0.54,0.7-0.82,1.06
		c-1.08,2.55-2.16,5.11-3.23,7.66c-1.34,4.26-1.53,8.53-0.57,12.79c0.01,2.89,0.74,5.59,2.19,8.09c0.76,2.72,2.14,5.08,4.12,7.08
		c1.43,2.41,3.34,4.33,5.75,5.75c3.1,2.83,6.73,4.75,10.91,5.74c0.92,0.21,1.85,0.4,2.78,0.58c-0.77,0.34-1.54,0.69-2.31,1.04
		c-1.83,0.83-3.61,1.77-5.27,2.9c-7.54,5.1-12.77,10.24-18.04,17.57c-1.03,1.43-1.99,2.9-2.78,4.48c-1.85,3.73-3.72,7.75-4.78,11.82
		c-1.06,4.05-1.61,8.42-1.76,12.61c-0.16,4.37,0.6,8.82,1.55,13.06c1.96,8.7,6.67,15.47,12.12,22.23
		c3.79,4.69,8.84,8.32,13.71,11.77c2.97,2.1,6.19,3.83,9.51,5.32c6.45,2.89,12.94,5.58,19.74,7.49c10.1,2.85,20.65,4.33,31.1,5.31
		c-7.54,4.69-14.87,9.72-21.96,15.07c-4.37,2.36-7.88,5.58-10.53,9.66c-3.32,3.62-5.55,7.88-6.72,12.76
		c-0.8,2.56-1.25,5.11-1.35,7.67c-0.09,2.43,0.13,4.86,0.68,7.29c0.23,4.99,1.71,9.64,4.45,13.95c5.16,8.01,12.85,15.06,22.42,17.24
		c9.4,2.14,20.69,1.94,28.91-3.78c6.41-4.46,12.98-8.66,19.72-12.6c-0.62,1.47-1.24,2.93-1.86,4.4c-1.31,4.17-1.49,8.33-0.56,12.5
		c0.01,2.83,0.72,5.47,2.14,7.91c1.26,3.89,3.42,7.25,6.48,10.09c4,3.67,8.66,6.39,13.83,8.06c4.17,1.31,8.33,1.49,12.5,0.56
		c4.17-0.19,8.06-1.43,11.65-3.72c0.65-0.47,1.34-0.92,2.05-1.34c5.97,0.08,11.97,1.24,17.94,1.13c10.95-0.2,21.66-1.38,32.51-2.91
		c7.95-1.12,15.78-2.53,23.58-4.42c7.64-1.85,15.26-3.76,22.93-5.49c6.58-1.49,13.2-2.86,19.86-3.94
		c9.39-0.98,18.86-1.22,28.26-0.44c1.74,4.19,3.5,8.35,5.65,12.35c5.33,9.94,11.75,19.24,18.28,28.42
		c8.55,12.02,17.97,23.54,27.4,34.88c7.86,9.45,15.9,18.76,24.22,27.8c8.13,8.84,16.45,17.51,24.96,25.99
		c8.23,8.21,16.61,16.31,25.65,23.63c10.88,8.82,22.12,17.37,34.85,23.37c13.55,6.39,27.49,11.15,41.96,14.88
		c13.77,3.55,27.54,7.09,41.31,10.66c6.99,1.81,13.99,3.62,20.98,5.43c3.36,0.87,6.71,1.74,10.07,2.61c1.68,0.43,3.36,0.87,5.04,1.3
		c0.84,0.22,1.67,0.45,2.52,0.65c8.85,2.11,12.22,1.11,21.13-0.2c6.14-1.72,11.48-4.83,16-9.33c4.49-4.52,7.6-9.86,9.33-16
		C1734.78,826.16,1734.83,819.93,1733.25,813.69z M1349.01,383.5c3.08,7.3,6.41,14.49,10.81,21.08
		c6.15,9.21,13.33,17.68,20.24,26.33c2.98,4.09,5.74,8.32,8.06,12.81c0.38,1.16,0.72,2.33,1.02,3.51c0,0.19,0.01,0.38,0,0.57
		c-0.01,0.86-0.09,1.71-0.11,2.57c-0.01,0.43-0.02,0.85-0.01,1.27c-0.41,0.06-0.82,0.13-1.23,0.19
		c-28.24,3.33-57.01,3.25-85.25-0.07c-15.01-2.3-29.77-5.75-44.55-9.23c-17.96-4.22-35.95-8.13-54.29-10.18
		c-1.7-0.19-3.39-0.37-5.1-0.53c-4.19-0.39-8.39-0.6-12.59-0.63c5.48-2.3,10.9-4.76,16.29-7.24c1.46-0.67,2.91-1.34,4.37-2.02
		c9.47-3.89,18.85-7.97,27.74-13.07c8.6-4.94,16.75-10.71,24.6-16.79c0.18-0.13,0.35-0.26,0.53-0.38
		c5.15-3.44,10.08-7.21,14.4-11.65c1.11-1.15,2.19-2.33,3.24-3.54c0.95,0.62,1.94,1.2,2.95,1.72c4.02,2.09,8.31,3.72,12.5,5.4
		c1.36,0.54,2.74,1.03,4.14,1.43c5.89,1.69,12.19,2.27,18.23,2.9c2.84,0.29,5.7,0.33,8.54,0.12
		C1332.17,387.42,1340.77,386.11,1349.01,383.5z M1425.98,362.02c-0.68-1.09-1.33-2.2-1.96-3.32c-0.2-0.36-0.39-0.72-0.59-1.08
		c1.54,0.11,3.08,0.22,4.62,0.33C1427.24,359.27,1426.55,360.63,1425.98,362.02z M1340.14,570.95c0.81,0.47,1.62,0.95,2.43,1.43
		c0.33,0.2,0.65,0.4,0.97,0.6c-2.04,0.42-4.07,0.85-6.1,1.3C1338.41,573.21,1339.31,572.1,1340.14,570.95z M1254.21,663.53
		c0.85-0.36,1.71-0.72,2.56-1.08c0.01,0,0.01,0,0.02-0.01C1255.93,662.81,1255.07,663.17,1254.21,663.53z"/>
</g>
<g id="line_art">
	<g>
		<path class="st5" d="M1692.05,836.88c-0.6,0-1.2-0.18-1.72-0.56c-14.42-10.39-32.63-13.15-32.81-13.18
			c-0.15-0.02-0.31-0.06-0.45-0.1c-13.64-4.27-21.31-2.57-28.08-1.07c-3.71,0.82-7.21,1.59-11.08,1.19
			c-79.24-8.2-122.63-79.47-148.55-122.05l-1.62-2.66c-31.96-52.42-69.23-83.27-94.88-99.93c8.99,9.25,15.63,17.81,16.16,18.49
			c0.52,0.68,0.72,1.54,0.56,2.38c-0.17,0.84-0.69,1.56-1.43,1.98c-9.01,5.15-24.53,0.97-29.6-0.62
			c-20.02,16.27-55.58,21.99-61.2,22.8c-31.46,21.3-55.08,29.4-70.23,24.05c-7.96-2.81-10.83-8.54-11.56-10.38
			c-5.24-7.09-6.69-14.66-4.32-22.52c0.72-2.37,1.77-4.71,3.12-7.02c-22.35,14.17-47.06,19.68-67.73,7.05
			c-8.21-5.02-12.59-11.49-13-19.23c-0.4-7.43,3.03-15,7.58-21.64c-21.47,0.95-36.1,6.61-40.03,12.51
			c-3.27,4.9,1.44,12.44,5.99,19.73c3.77,6.04,7.33,11.75,7.33,17.1c0,10.96-8.99,35.68-35.69,37.74
			c-24.98,1.91-31.64-14.82-38.69-32.55l-0.9-2.26c-4.61-11.52,2.05-23.19,6.91-31.7c1.67-2.93,4.18-7.32,4.05-8.71
			c-0.04-0.02-0.09-0.04-0.16-0.07c-2.45-0.98-4.31-3.07-6.46-5.49c-7.55-8.5-20.19-22.74-75.57-0.02
			c-20.55,8.43-52.55,12.27-87.87,13.43c1.81,2.5,3.91,4.97,6.34,7.4c5.81,5.79,7.62,10.98,5.38,15.42
			c-5.17,10.25-31.05,10.22-51.63,7.08c-20.39-3.11-42.84-10.46-44.73-21.76c-0.64-3.82-0.75-6.89-0.48-9.41
			c-15.29-0.79-30.02-1.8-43.57-2.88c3.91,6.81,6.92,12.77,5.9,17.88c-0.98,4.92-5.07,9.91-10.93,13.35
			c-10.31,6.05-30.78,10.61-69.78-1.97c-1.4-0.45-2.26-1.87-2-3.32c0.03-0.17,3.1-17.62,1.79-35.9c-0.06-0.88,0.27-1.74,0.91-2.35
			c0.64-0.61,1.52-0.9,2.4-0.78c0.73,0.09,25.64,3.21,61.01,6.19c-2.71-5.11-5.05-10.48-5.7-15.72
			c-2.04-16.34,13.49-32.26,35.36-36.23c9.9-1.8,20.92,2.16,30.25,10.86c9.2,8.59,14.5,19.97,13.5,28.99
			c-0.93,8.39-4.96,11.69-8.19,14.35c-0.79,0.65-1.53,1.25-2.19,1.91c21.79,1,44.43,1.52,66.05,1.14
			c-8.09-16.65-6.24-32.59-4.66-39.97c2.98-13.84,10.29-25.15,18.19-28.13c8.14-3.07,10.92-1.14,14.23,2.16
			c2.52,2.51,5.97,5.94,18.24,6.82c7.32,0.53,13.56-1.56,18.54-6.19c8.27-7.7,11.27-20.67,11.27-27.51
			c0-11.08-5.6-30.23-26.57-31.75c-21.97-1.6-32.23,11.44-32.33,11.57c-0.45,0.59-1.12,0.99-1.85,1.11
			c-6.14,1.02-11.4-0.53-15.62-4.62c-15.65-15.17-11.25-62.73-9.96-73.98c-33.32-12.39-58.54-8.67-68.03,0.22
			c-3.73,3.49-2.36,6.52,2.83,14.99c4.45,7.27,10,16.31,10.92,29.15c1.98,27.69-31.08,37.74-31.41,37.84
			c-0.41,0.12-0.84,0.15-1.26,0.09c-18.97-2.79-31.14-8.36-37.2-17.04c-7.25-10.37-4.65-22.86-2.14-34.93
			c1.52-7.32,2.96-14.24,2.06-20.1c-0.5-3.26-1.95-5.45-4.43-6.71c-9.84-4.99-32.75,4.71-40.74,8.87c-0.35,0.18-0.73,0.29-1.12,0.32
			c-8.55,0.68-16.54,0.88-23.97,0.6c3.73,11.5,9.86,32.7,10.19,48.42c5.73,5.57,34.97,35.25,35.86,62.86
			c0.31,9.51-2.78,17.78-9.18,24.58c-19.79,21.03-43.53,27.15-74.37,18.39c1.24,4.17,2.47,8.12,3.61,11.66
			c0.08,0.24,0.12,0.48,0.14,0.73c1.73,29.46,46.07,65.28,46.51,65.64c0.5,0.4,0.86,0.96,1.02,1.59
			c3.08,12.31,1.97,22.87-3.29,31.38c-7.87,12.74-22.14,16.04-22.74,16.17c-0.11,0.03-0.23,0.04-0.35,0.06
			c-16.63,1.67-31.09-5.08-43.23-15.52c4.43,9.54,5.88,17.28,4.26,23.09c-1.43,5.14-4.98,7.68-7.38,8.58
			c-7.5,7.25-16.93,10.92-28.02,10.92c-0.09,0-0.18,0-0.26,0c-41.81-0.22-94.74-52.04-101.17-58.5
			c-39.58-10.78-71.92-53.32-77.11-60.44c-24.91-5.68-52.91-34.25-59.5-41.28c-18.3,6.93-31.55,1.95-35.89-0.17
			c-94.87,46.62-226.3,27.27-227.63,27.07c-1.52-0.23-2.6-1.59-2.49-3.12c0.11-1.53,1.37-2.72,2.9-2.74
			c157.81-2.19,214.92-32.23,235.04-57.04c7.61-9.39,9.32-17.45,9.6-21.88c-45.45,15.16-156.15-14.71-160.98-16.02
			c-1.56-0.43-2.48-2.03-2.08-3.59c0.41-1.56,2-2.51,3.57-2.11c103.3,25.83,173.17-4.52,219.41-24.61
			c22.67-9.85,40.59-17.63,54.96-15.75c39.79,5.19,90.47,34.34,90.47,45.05c0,4.83,15.65,31.58,62.59,57.87
			c10.51,5.89,20.25,10.54,29.3,13.96c-4.92-17.6-10.27-40.01-7.9-47.12c0.79-2.38,2.42-2.93,3.32-3.05c3.2-0.41,5.3,2.83,9.92,9.93
			c7.09,10.89,18.95,29.12,35.03,31.71c8.23,1.33,16.96-1.65,25.94-8.83c0.15-0.12,0.31-0.22,0.48-0.31
			c0.22-0.12,5.98-3.33,6.97-11.72c1.05-8.93-3.16-24.15-26.15-48.31c0.1,9.79-2.3,16.97-7.18,21.48
			c-11.39,10.51-31.21,2.1-32.05,1.74c-0.96-0.42-1.63-1.32-1.75-2.36c-0.12-1.04,0.32-2.07,1.16-2.7
			c13.76-10.32,22.69-36.67,22.78-36.94c0.31-0.94,1.08-1.66,2.04-1.91c0.96-0.25,1.98-0.01,2.72,0.65c1.5,1.35,2.97,2.69,4.4,4.01
			c-1.17-5.39-2.89-11.57-5.29-18.68c-3.67-3.88-26.85-28.77-33.91-44.4c-6.52-3.95-11.83-8.9-15.92-14.84
			c-1.25-1.82-2.36-3.69-3.34-5.6c-15.17-10.17-37.32-21.22-57.8-31.43l-6.79-3.39c-17.35-8.67-45-29.09-63.42-43.93
			c-41.52-33.47-39.13-38.59-38.11-40.77c2.01-4.3,8.43-1.94,14.28,0.61c30.43,13.23,34.09,20.1,34.19,24.12
			c0.02,0.78-0.11,1.47-0.34,2.08c6.5,6.16,29.31,26.24,44.81,20.55c7.7-2.83,12.75-11.92,15.06-27.07
			c0.38-5.05,0.89-8.79,1.08-10.08c0.23-1.57,1.65-2.68,3.23-2.51c1.57,0.17,2.74,1.55,2.63,3.13c-0.23,3.41-0.57,6.61-1.01,9.63
			c-1.19,16.32-0.57,41.37,10.38,46.63c6.47,3.11,20.02,0.57,47.8-29.16c0.99-1.06,2.61-1.24,3.81-0.42c1.2,0.82,1.63,2.39,1,3.7
			c-0.22,0.47-20.57,43.96-6.14,74.42c9.9,6.85,16.92,13.48,19.09,19.71c0.06,0.17,0.12,0.35,0.19,0.53
			c8.63,4.85,19.53,7.92,32.63,9.21c-0.28-1.1,0.09-2.27,0.97-3c8.53-7.11,18.93-8.51,24.26-8.73c-0.95-13.25,2.68-29.15,6.51-45.92
			c3.97-17.39,8.47-37.09,8.47-56.65c0-34.56-106.96-93.84-155.75-115.58c-4.35-1.94-8.99-4.07-13.86-6.3
			c-30.52-14-68.49-31.42-104.23-34.53c-28.12-2.44-68.82,12.67-111.9,28.68c-19.63,7.29-39.92,14.83-59.14,20.66
			c-59.97,18.18-173.46,32.92-174.6,33.07c-1.63,0.21-3.09-0.93-3.3-2.55c-0.21-1.61,0.93-3.09,2.55-3.3
			c1.14-0.15,114.14-14.83,173.65-32.87c19.04-5.77,39.25-13.28,58.79-20.54c43.72-16.24,85.01-31.59,114.46-29.03
			c36.75,3.2,75.25,20.86,106.18,35.05c4.85,2.23,9.47,4.34,13.8,6.27c1.59,0.71,159.24,73.1,159.24,120.97
			c0,20.23-4.58,40.27-8.62,57.96c-4.03,17.67-7.84,34.35-6.06,47.16c0.12,0.88-0.16,1.78-0.77,2.42c-0.61,0.65-1.49,0.99-2.37,0.92
			c-0.12-0.01-12.23-0.8-21.92,6.12c0.02,0.06,0.04,0.13,0.07,0.19c7.64,0.4,15.94,0.25,24.92-0.44
			c5.06-2.58,31.91-15.56,45.59-8.62c4.18,2.12,6.8,5.95,7.59,11.07c1.06,6.91-0.55,14.68-2.12,22.19
			c-2.36,11.35-4.59,22.07,1.2,30.36c5.02,7.18,15.67,11.92,32.56,14.49c4.23-1.39,28.12-10.21,26.6-31.58
			c-0.81-11.4-5.94-19.77-10.06-26.49c-4.82-7.87-9.38-15.3-1.83-22.37c11.38-10.64,39.39-14.96,76.33-0.6
			c1.27,0.49,2.03,1.79,1.85,3.14c-2.1,15.66-4.76,58.99,7.94,71.29c2.61,2.53,5.75,3.56,9.52,3.18
			c3.11-3.43,14.89-14.46,36.6-12.89c25.29,1.83,32.04,24.52,32.04,37.63c0,6.77-2.75,22.13-13.15,31.82
			c-6.22,5.79-13.95,8.39-22.97,7.75c-14.46-1.03-18.98-5.54-21.98-8.52c-2.2-2.19-2.79-2.78-7.99-0.82
			c-5.08,1.92-11.69,10.72-14.51,23.86c-1.51,7.03-3.28,22.65,5.47,38.59c36.18-0.95,68.94-4.6,89.38-12.98
			c59.25-24.31,73.63-8.12,82.22,1.56c1.65,1.86,3.08,3.46,4.24,3.93c2.21,0.88,3.13,2.39,3.52,3.5c1.26,3.62-1.15,7.84-4.48,13.68
			c-4.5,7.89-10.11,17.71-6.55,26.59l0.9,2.27c6.76,17.01,12.07,30.45,32.76,28.85c21.37-1.64,30.24-21.56,30.24-31.86
			c0-3.66-3.27-8.91-6.43-13.98c-5.28-8.46-11.27-18.06-5.89-26.12c5.7-8.54,24.21-14.99,49.54-15.27
			c3.85-4.58,7.86-8.42,10.8-11.04c-50.39-11.7-193.44,3.24-194.93,3.4c-0.97,0.1-1.92-0.28-2.55-1.02
			c-9.08-10.64-8.07-27.71-4.1-40.13c3.13-9.8,9.62-21.05,18.45-23.25c8.76-2.19,14.29,1.34,19.65,4.76
			c4.74,3.02,9.64,6.15,17.69,6.15c16.67,0,30.17-18.87,31.86-35.81c1.63-16.26-2.34-28.18-26.99-33.46
			c-9.88-2.12-11.31-0.24-13.29,2.36c-4.02,5.28-8.69,9-28.79,4.97c-7.85-1.57-13.71-5.77-17.43-12.48
			c-12.28-22.18,3.58-64.75,4.26-66.55c0.51-1.34,1.9-2.12,3.31-1.85c47.85,9.2,79.5-5.87,80.79-12.34
			c0.65-3.28-2.47-8.59-5.78-14.22c-4.19-7.13-8.93-15.21-8.93-23.66c0-16.03,13.59-32.25,39.57-32.25
			c11.2,0,20.58,3.82,27.13,11.06c6.67,7.37,9.87,17.87,8.77,28.81c-0.77,7.73-5.14,13.46-8.98,18.5c-3.11,4.08-5.8,7.61-5.28,10.73
			c0.42,2.49,2.93,5.29,7.47,8.31c2.84,1.9,6.42,3.23,10.46,4.12c11.45-15.62,31.76-32.39,60.8-50.14
			c4.86-4.62,64.49-60.91,100.98-71.73c25.48-7.55,65.69-5.53,98-3.91c15.9,0.8,29.64,1.49,39.71,1.05
			c15.82-0.69,24.91-0.69,33.69-0.69c8.72,0,17.75,0,33.44-0.68c6.9-0.3,12.56-0.66,17.55-0.98c17.74-1.14,25.84-1.66,42.42,3.87
			c1.28,0.43,2.11,1.68,2,3.02c-0.1,1.35-1.12,2.45-2.45,2.68c-0.64,0.11-64.77,11.6-99.25,77.93
			c-18.04,34.69-19.65,60.73-21.21,85.92c-1.51,24.33-2.93,47.31-18.55,75.83c-24.98,45.63-56.52,70.56-93.73,74.11
			c-5.51,1.97-76.73,28.05-85.51,57.18c-1.86,6.17-0.67,11.93,3.64,17.61c0.21,0.28,0.37,0.59,0.47,0.92
			c0.06,0.17,1.7,4.93,8.3,7.17c9.22,3.13,28.03,1.53,65.32-23.83c0.38-0.26,0.81-0.42,1.27-0.48c0.4-0.05,40.48-5.58,60.11-22.6
			c0.8-0.69,1.92-0.91,2.92-0.55c4.27,1.52,15.49,4.48,22.95,2.83c-6.69-8.14-25.44-29.84-40.1-35.69c-1.49-0.6-2.23-2.28-1.66-3.79
			c0.57-1.5,2.25-2.27,3.76-1.72c0.72,0.26,72.99,27.34,128.92,119.08l1.62,2.67c25.36,41.65,67.8,111.36,144.13,119.26
			c2.92,0.3,5.83-0.34,9.2-1.08c7.08-1.56,15.89-3.51,30.89,1.14c0.95,0.15,4.34,0.73,9.01,2.04
			c-38.3-28.95-114.08-88.03-143.26-123.55c-25.44-30.97-55.28-97.82-72.58-162.55c-12.69-47.49-29.76-136.08-1.49-195.88
			c18.81-39.8,54.11-59.98,104.91-59.98c1.05,0,2.02,0.56,2.55,1.46c0.3,0.52,30.41,52.15,46.57,79.46
			c6.75,11.41,13.7,26.75,21.06,42.98c17.01,37.54,38.18,84.25,68.44,106.88c1.3,0.97,1.57,2.82,0.6,4.12
			c-0.97,1.3-2.82,1.57-4.12,0.6c-31.48-23.53-52.99-71.02-70.28-109.17c-7.29-16.09-14.18-31.28-20.76-42.41
			c-14.64-24.72-40.69-69.37-45.73-78.02c-47.42,0.44-80.35,19.48-97.89,56.6c-47.44,100.38,29.41,298.74,73.3,352.18
			c38.45,46.82,163.62,138.54,164.88,139.46c1.31,0.96,1.6,2.8,0.65,4.11C1693.86,836.46,1692.96,836.88,1692.05,836.88z
			 M340.54,572.5c0.82,0,1.62,0.34,2.19,0.98c0.32,0.36,32.64,35.97,58.82,41.21c0.74,0.15,1.4,0.58,1.83,1.19
			c0.34,0.49,34.68,48.7,75.25,59.29c0.52,0.14,0.99,0.41,1.36,0.79c0.56,0.57,56.39,57.09,97.57,57.31c0.07,0,0.15,0,0.23,0
			c9.74,0,17.94-3.27,24.38-9.71c0.39-0.39,0.87-0.66,1.4-0.78c0.07-0.02,2.97-0.88,4-4.89c1.96-7.63-1.41-33.18-74.85-105.41
			c-2.68-2.06-39.55-30.6-60.8-57.17c-17.65-22.07-40.3-41.95-49.97-50.44c-2.41-2.11-4-3.51-4.76-4.27
			c-2.82-2.82-0.95-8.35-0.31-9.97c1.74-4.44,5.6-9.25,11.21-9.45c7.12-0.22,14.22,6.88,21.14,21.2
			c2.45,2.77,22.78,25.21,44.17,31.79c0.74,0.23,1.36,0.73,1.72,1.41c0.34,0.63,34.82,63.56,72.03,83.05
			c0.67,0.35,1.19,0.96,1.43,1.68c0.3,0.91,30.94,90.88,82.78,85.94c1.41-0.36,12.75-3.54,18.89-13.53
			c4.23-6.89,5.17-15.58,2.78-25.85c-6.33-5.2-45.82-38.82-47.9-68.87c-0.68-2.13-2.51-7.88-4.66-15.24
			c-10.54-3.61-21.89-8.85-34.15-15.71c-45.58-25.53-65.42-53.88-65.6-62.89c-1.69-5.68-43.59-33.88-85.34-39.33
			c-12.75-1.66-30.01,5.83-51.85,15.31c-34.05,14.79-80.74,35.07-143.94,35.07c-0.45,0-0.89,0-1.34,0
			c32.17,4.78,66.33,6.9,84.63-1.05c0.82-0.36,1.75-0.32,2.54,0.09c0.79,0.41,1.35,1.17,1.52,2.04c0.11,0.57,2.57,14.03-10.69,30.38
			c-18.45,22.75-66.18,49.72-187.06,57.28c46.94,1.2,117.04-2.93,173.4-31.12c0.92-0.46,2.01-0.41,2.88,0.14
			c0.54,0.33,13.76,8.19,33.93-0.22C339.78,572.57,340.16,572.5,340.54,572.5z M421.61,496.66c0.76,0.72,2.32,2.09,4.24,3.78
			c9.79,8.59,32.7,28.71,50.68,51.19c21.5,26.88,59.54,55.99,59.92,56.28c0.1,0.07,0.19,0.16,0.28,0.24
			c13.93,13.7,26.03,26.39,36.25,38.02c-5.27-10.92-8.49-19.72-9.59-22.87c-36.13-19.67-68.06-75.23-72.86-83.86
			c-23.88-7.91-45.1-32.44-46.01-33.5c-0.17-0.2-0.31-0.41-0.42-0.65c-6.24-13.03-12.66-19.73-17.18-17.92
			C423.25,488.83,421.31,494.93,421.61,496.66z M680.82,633.84c37.24,11.55,55.16,6.09,62.58,1.73c5.22-3.06,7.63-6.88,8.14-9.42
			c0.71-3.56-3.08-10.09-6.74-16.39c-0.17-0.3-0.35-0.6-0.53-0.91c-29.91-2.49-53.03-5.17-61.79-6.24
			C683.09,616.27,681.58,628.65,680.82,633.84z M800.86,612.6c-0.26,2.02-0.16,4.62,0.43,8.15c1.07,6.44,17.81,13.55,39.8,16.9
			c24.95,3.8,43.03,0.93,45.48-3.91c1.26-2.5-2.14-6.45-4.28-8.59c-3.73-3.72-6.75-7.54-9.18-11.38
			C849.47,614.31,824.61,613.74,800.86,612.6z M1148.6,593.74c-5.16,6.54-9.48,14.26-9.09,21.47c0.31,5.76,3.65,10.5,10.19,14.51
			c30.97,18.93,72.87-8.21,98.69-41.42c0.36-0.46,0.84-0.8,1.4-0.99c0.27-0.09,26.13-8.77,45.76-23.31
			c-7.37-5.48-27.52-18.97-47.24-18.97c-3.99,0-10.34,0.79-18.38,1.79c-10.77,1.34-24.52,3.06-39.31,3.61
			c-3.88,24.72-7.97,42.02-8.45,44.02c-0.36,1.52-1.87,2.48-3.39,2.21C1167.86,594.68,1157.72,593.79,1148.6,593.74z M747.77,603.1
			c15.01,1.21,31.64,2.36,48.91,3.23c1.44-2.79,3.54-4.51,5.52-6.13c2.9-2.38,5.41-4.44,6.07-10.44
			c0.79-7.13-3.89-16.78-11.66-24.03c-7.83-7.31-17.25-10.82-25.17-9.38c-18.48,3.36-32.2,16.69-30.57,29.7
			C741.54,591.47,744.58,597.47,747.77,603.1z M1252.5,592.6c-1.46,1.86-2.98,3.7-4.54,5.52c24-14.39,50.9-23.91,52.8-24.57
			c0.23-0.08,0.46-0.13,0.7-0.15c35.3-3.23,65.41-27.15,89.47-71.1c14.98-27.36,16.37-49.71,17.83-73.36
			c1.6-25.8,3.25-52.47,21.87-88.27c27.18-52.27,72.18-71.78,92.71-78.21c-9.38-2-16.72-1.52-29.82-0.69
			c-5.02,0.32-10.72,0.69-17.68,0.99c-15.82,0.69-24.91,0.69-33.69,0.69c-8.72,0-17.75,0-33.44,0.68
			c-10.35,0.45-24.21-0.25-40.26-1.05c-31.87-1.6-71.52-3.59-96.03,3.67c-35.88,10.63-98.19,69.96-98.81,70.56
			c-0.15,0.15-0.32,0.28-0.5,0.39c-30,18.32-47.54,33.75-57.46,46.32c25.59,2.63,62.4-7.26,62.86-7.39
			c1.35-0.37,2.78,0.27,3.41,1.53c5.25,10.5,8.96,22.62,11.46,35.63c8.27-7.5,12.57-14.2,12.68-14.39c0.53-0.85,1.45-1.37,2.46-1.38
			c1.01,0.04,1.94,0.48,2.49,1.31c1.25,1.88,1.84,3.64,2.31,5.05c0.26,0.78,0.61,1.84,0.84,1.95c3.15,1.47,24.27-6.85,34.42-10.85
			c25.42-10.02,30.72-27.98,30.8-40.99c-0.2-1.26-0.37-2.6-0.55-4c-0.43-3.49-0.92-7.44-1.91-11.92c-0.34-1.52,0.57-3.04,2.06-3.47
			c1.5-0.43,3.07,0.38,3.59,1.85c0.06,0.17,2.28,6.68,2.48,15.72c1.65,12.06,4.5,16.42,37.48,19.33c14.39,1.27,25.2-1.53,32.13-8.31
			c1.27-1.25,2.36-2.58,3.28-3.95c0.68-6.27,2.39-13.01,5.46-20.22c0.53-1.25,1.85-1.98,3.2-1.75c1.34,0.22,2.36,1.34,2.45,2.7
			c0.04,0.55,0.71,11.32-5.38,21.29c-1.87,22.19,10.38,37.89,19.12,49.11c6.99,8.96,13.02,16.71,5.72,22.55
			c-13.78,11.02-34.41,12.99-67.62,12.78c-19.45-0.13-35.38-4.45-52.25-9.02c-9.59-2.6-19.51-5.29-30.46-7.28
			c-15.32-2.79-26.78-3.45-42.42-0.7c4.63,38.69,0.6,82.51-4.26,115.33c14.07-0.59,27.22-2.23,37.68-3.54
			c8.24-1.03,14.75-1.84,19.11-1.84c26.8,0,52.86,21.69,53.96,22.62c0.67,0.57,1.06,1.41,1.05,2.29c-0.01,0.88-0.42,1.71-1.11,2.26
			C1283.21,581.5,1257.57,590.84,1252.5,592.6z M1153.61,587.95c7.38,0.28,15.23,1.06,23.44,2.43c1.29-5.78,4.4-20.4,7.43-39.79
			c-41.7,0.57-89.4-9.42-102.07-62.63c-0.04-0.19-0.07-0.38-0.08-0.57c-0.02-0.49-0.33-12.16,9.98-21.16
			c3.9-3.4,8.72-5.94,14.45-7.6c5.79-7.05,14.68-13.64,28.27-18.19c0.29-0.1,0.59-0.2,0.88-0.3c-8.36-0.64-17.37-2.59-27.03-6.29
			c-0.24-0.09-0.46-0.21-0.66-0.36c-0.44-0.32-10.81-7.95-10.24-23.2c0.27-7.08,2.78-14.47,7.52-22.16
			c-3.88-1.02-7.36-2.45-10.25-4.38c-6.12-4.08-9.3-7.97-10.01-12.25c-0.94-5.64,2.63-10.32,6.41-15.28
			c3.54-4.64,7.2-9.44,7.8-15.52c0.93-9.29-1.72-18.14-7.28-24.27c-5.4-5.97-13.27-9.12-22.76-9.12
			c-22.11,0-33.68,13.26-33.68,26.36c0,6.85,4.31,14.2,8.12,20.68c4.06,6.92,7.57,12.89,6.47,18.37c-2.2,11-36.92,25.99-85.19,17.43
			c-3.07,9.03-13.27,42.22-3.8,59.3c2.88,5.19,7.27,8.32,13.43,9.55c18.09,3.62,20.56,0.37,22.95-2.77
			c3.21-4.22,6.67-7.24,19.21-4.55c24.43,5.24,33.88,17.14,31.62,39.81c-1.99,19.86-17.62,41.12-37.73,41.12
			c-9.77,0-15.92-3.92-20.86-7.07c-5.09-3.24-8.76-5.58-15.05-4.01c-5.25,1.31-10.98,9.08-14.26,19.33
			c-3.19,9.96-4.44,24.38,2.04,33.32c17.58-1.81,157.17-15.57,201.04-1.54c1.04,0.33,1.82,1.22,2,2.3c0.19,1.08-0.24,2.17-1.11,2.84
			C1164.49,577.87,1159.27,581.94,1153.61,587.95z M625.32,578.22c30.43,9.74,52.96,4.47,72.02-15.79
			c5.29-5.62,7.84-12.46,7.58-20.35c-0.89-27.54-34.58-59.31-34.92-59.62c-0.6-0.56-0.94-1.34-0.94-2.15
			c0-15.87-7.08-39.28-10.64-50.06c-11.56-0.92-21.62-3.13-30.16-6.6c9.8,15.58,29.17,35.96,29.4,36.21
			c0.3,0.31,0.52,0.68,0.66,1.08c3.63,10.66,6,20.02,7.09,28.07c23.63,23.45,34.62,43.04,32.68,58.36
			c-1.31,10.36-8.23,14.97-9.78,15.88c-10.27,8.16-20.49,11.49-30.37,9.9c-18.66-3-31.41-22.61-39.03-34.32
			c-1.02-1.57-2.11-3.25-3.07-4.63C616,542.85,620.5,561.39,625.32,578.22z M1088.22,486.91c7.31,30.26,27.08,48.23,60.43,54.93
			c11.99,2.41,24.59,3.09,36.72,2.86c4.8-32.51,8.9-76.2,4.51-114.37c-13.17,2.82-29.53,7.85-52.98,15.69
			c-8.56,2.86-15.07,6.56-20,10.66c8.7-0.93,18.89-0.38,30.53,1.65c0.81,0.14,1.52,0.61,1.96,1.3c0.45,0.69,0.59,1.53,0.39,2.32
			c-0.09,0.37-9.05,37.01,3.43,50.74c4,4.4,5.09,8.22,3.24,11.36c-5.77,9.79-38.94,2.05-40.35,1.72
			c-9.92-2.35-18.94-18.56-19.7-35.39c-0.23-5.22,0.27-14.04,4.79-23.16c-1.85,1-3.53,2.15-5.01,3.44
			C1088.73,477.17,1088.24,485.38,1088.22,486.91z M1110.03,463.89c-6.94,9.3-8.05,19.36-7.74,26.22
			c0.73,16.24,9.48,28.56,15.17,29.91c16.31,3.87,32.28,3.79,33.92,1.02c0.12-0.21,0.05-1.56-2.53-4.39
			c-12.36-13.6-7.51-43.27-5.49-53.02C1130.08,461.6,1118.84,461.7,1110.03,463.89z M633.86,517.52c5.69,1.58,15.31,3.12,21.1-2.23
			c3.51-3.25,6.44-9.91,4.91-23.48c-2.12-2.07-4.36-4.2-6.74-6.39C650.25,492.75,643.52,507.95,633.86,517.52z M1214.83,421.56
			c7.89,0,15.56,0.91,24.42,2.52c11.2,2.04,21.24,4.76,30.95,7.39c16.49,4.47,32.06,8.69,50.75,8.81
			c31.86,0.21,51.49-1.56,63.9-11.49c2.38-1.9,0.52-5.09-6.68-14.33c-7.9-10.13-19.52-25.05-20.48-45.53
			c-8.2,7.28-20.18,10.28-35.64,8.91c-23.49-2.07-33.59-5.24-38.39-11.47c-3.04,12.55-11.66,26.21-32.88,34.57
			c-28.55,11.25-35.06,12.58-39.08,10.7c-2.27-1.06-3.14-3.07-3.74-4.84c-2.72,3.44-7.2,8.53-13.36,13.71
			c0.15,0.95,0.29,1.91,0.43,2.87C1202.2,422.13,1208.58,421.56,1214.83,421.56z M1111.39,428.49c35.1,13.28,61,1.9,76.75-10.31
			c-2.22-12.9-5.59-24.89-10.45-35.26c-9.19,2.32-42.27,9.99-65.95,6.46c-5.62,8.48-7.64,15.47-7.88,20.98
			C1103.4,421.34,1109.94,427.3,1111.39,428.49z M440.5,283.14c9.64,13.04,67.42,60.42,97.31,75.37l6.79,3.39
			c18.26,9.1,36.83,18.36,51.44,27.36c-6.12-20.53-0.81-43.7,3.93-57.97c-19.49,18.6-34.13,25.22-44.56,20.2
			c-9.58-4.6-13.02-18.15-13.95-31.47c-3.24,6.02-7.53,10.02-12.83,11.97c-2.51,0.92-5.13,1.33-7.8,1.33
			c-20.45,0-43.93-23.91-45.04-25.05c-0.65-0.67-0.95-1.62-0.79-2.55c0.13-0.78,0.57-1.47,1.21-1.92
			c-0.32-1.05-3.31-6.82-30.61-18.7C443.31,284.1,441.67,283.5,440.5,283.14z"/>
	</g>
</g>
</svg>
